<?xml version="1.0" encoding="UTF-8" standalone="no"?>
<svg width="525px" height="504px" viewBox="0 0 525 504" version="1.1" xmlns="http://www.w3.org/2000/svg" xmlns:xlink="http://www.w3.org/1999/xlink">
    <!-- Generator: Sketch 48.2 (47327) - http://www.bohemiancoding.com/sketch -->
    <title>Group 4</title>
    <desc>Created with Sketch.</desc>
    <defs></defs>
    <g id="4.3.-WHIMToday---project-background" stroke="none" stroke-width="1" fill="none" fill-rule="evenodd" transform="translate(-557.000000, -148.000000)">
        <g id="Group-4" transform="translate(557.000000, 148.000000)">
            <ellipse id="Oval-3" fill="#1D283B" cx="241.324687" cy="474" rx="83.3246865" ry="30"></ellipse>
            <g id="Group-2" transform="translate(158.000000, 299.000000)">
                <path d="M145.935896,189.515604 L144.775279,193.115415 C142.831113,194.363928 137.884111,196.212356 136.039604,194.820399 L81.0184141,155.386188 C79.7238286,154.409204 78.9245969,152.91236 78.8331067,151.292984 L70.007249,-5.09241912 L79.8888376,-12.1113466 C82.0966907,-12.9011026 84.3917862,-13.0889841 86.4477004,-12.0188762 L145.750956,22.2735888 C149.719014,24.5644365 152.163434,28.7981428 152.163434,33.3798383 L152.163434,189.094423 C152.163434,193.460463 149.609552,187.156466 145.935896,189.515604" id="Fill-3" fill="#BCD7F8" transform="translate(111.085342, 91.276914) scale(-1, 1) rotate(-240.000000) translate(-111.085342, -91.276914) "></path>
                <path d="M157.363355,173.643463 C157.347344,173.301355 156.986611,173.096156 156.677832,173.244174 C155.191117,173.95649 154.426521,173.299068 152.802571,172.073753 L96.2570901,128.992027 C94.9928925,128.037915 94.201176,126.588123 94.0792981,125.012859 C94.0734165,124.938033 94.0861598,124.862554 94.1142604,124.793283 L141.086279,8.83835245 C141.122875,8.74816931 141.186264,8.67138295 141.267952,8.61844937 L160.741628,-3.96046465 C160.893567,-4.0584898 161.089617,-4.06371781 161.24417,-3.96994041 C165.061923,-1.64739786 167.40211,2.50266025 167.40211,6.98567711 L167.40211,164.751601 C167.40211,168.968643 164.492724,169.893347 158.092989,174.017919 C157.786823,174.215276 157.380673,174.007463 157.363355,173.643463" id="Fill-4" fill="#D4E5FF" transform="translate(130.740001, 85.028429) scale(-1, 1) rotate(-240.000000) translate(-130.740001, -85.028429) "></path>
                <path d="M79.2321337,150.433734 C77.9068337,149.668484 77.0906109,148.254635 77.0906109,146.724135 L77.0902842,-15.7322925 C77.0902842,-19.0295318 80.6600334,-21.0906739 83.515506,-19.4418909 L143.064804,14.9391235 C148.119635,17.8573322 151.23324,23.2503492 151.23324,29.0870934 L151.23324,184.584389 C151.23324,187.881955 147.663818,189.942771 144.808018,188.293988 L79.2321337,150.433734 Z" id="Fill-5" fill="#9DB9E4" transform="translate(114.161762, 84.426070) scale(-1, 1) rotate(-240.000000) translate(-114.161762, -84.426070) "></path>
                <path d="M168.398624,34.6433523 L183.604285,43.4231382 C184.308433,43.8296159 184.940368,44.7033467 185.262544,45.7149663 L185.263851,45.7195408 C185.958196,47.8999469 184.929585,49.5304318 183.41281,48.654087 L168.205515,39.8700533 C167.502021,39.4635757 166.870085,38.5898448 166.547909,37.5782253 C165.853891,35.398146 166.882175,33.767661 168.398624,34.6433523" id="Fill-6" fill="#373059" transform="translate(175.905944, 41.648871) scale(-1, 1) rotate(-240.000000) translate(-175.905944, -41.648871) "></path>
                <path d="M33.3423641,113.943539 L48.5480253,122.722998 C49.2518459,123.129475 49.8465318,123.82382 50.1079322,124.544632 L50.1092392,124.547899 C50.6722303,126.101598 49.4802445,126.948535 47.9634687,126.072517 L32.7565004,117.28979 C32.0526798,116.88364 31.4583207,116.188968 31.1969203,115.468483 C30.6339292,113.915111 31.8255882,113.067847 33.3423641,113.943539" id="Fill-7" fill="#6EA3E8" transform="translate(40.653067, 120.008157) scale(-1, 1) rotate(-240.000000) translate(-40.653067, -120.008157) "></path>
                <path d="M56.5679833,128.587103 C56.6767912,129.725175 55.8680837,130.346001 54.761053,129.973832 C53.654349,129.601663 52.6688695,128.377002 52.5600616,127.23893 C52.450927,126.100858 53.2599612,125.480032 54.3666651,125.852201 C55.4736958,126.22437 56.4591753,127.448704 56.5679833,128.587103" id="Fill-8" fill="#6EA3E8" transform="translate(54.563996, 127.913017) scale(-1, 1) rotate(-240.000000) translate(-54.563996, -127.913017) "></path>
                <path d="M18.952562,123.031706 L10.2345319,117.998441 C9.71042408,117.69587 9.77675443,117.162287 10.3822231,116.812664 C10.987365,116.463367 11.9117422,116.424811 12.43585,116.727708 L21.1538801,121.760973 C21.6783147,122.063544 21.6116576,122.597128 21.0065156,122.946751 C20.401047,123.296374 19.4766698,123.334604 18.952562,123.031706" id="Fill-9" fill="#7FAEEB" transform="translate(15.694288, 119.879762) scale(-1, 1) rotate(-240.000000) translate(-15.694288, -119.879762) "></path>
                <path d="M119.077642,129.520406 C119.077642,131.21428 117.888597,133.274116 116.421814,134.120726 C114.954704,134.967663 113.765659,134.281161 113.765659,132.587613 C113.765659,130.893738 114.954704,128.833903 116.421814,127.986966 C117.888597,127.140355 119.077642,127.826858 119.077642,129.520406" id="Fill-10" fill="#6EA3E8" transform="translate(116.421651, 131.053951) scale(-1, 1) rotate(-240.000000) translate(-116.421651, -131.053951) "></path>
                <path d="M127.117698,124.878582 C127.117698,126.572457 125.928653,128.631965 124.46187,129.478903 C122.99476,130.32584 121.805715,129.639337 121.805715,127.945463 C121.805715,126.251588 122.99476,124.19208 124.46187,123.345142 C125.928653,122.498205 127.117698,123.184708 127.117698,124.878582" id="Fill-11" fill="#6EA3E8" transform="translate(124.461707, 126.412022) scale(-1, 1) rotate(-240.000000) translate(-124.461707, -126.412022) "></path>
                <polygon id="Fill-12" fill="#1D283B" transform="translate(114.161885, 84.425999) scale(-1, 1) rotate(-240.000000) translate(-114.161885, -84.425999) " points="77.0904068 135.043573 77.0904068 -8.99817714 151.233363 33.8084257 151.233363 177.850176"></polygon>
                <polyline id="Fill-13" fill="#2E3E59" transform="translate(114.161885, 84.425999) scale(-1, 1) rotate(-240.000000) translate(-114.161885, -84.425999) " points="151.233363 177.850176 77.0904068 135.043573 77.0904068 -8.99817714 151.233363 177.850176"></polyline>
            </g>
            <ellipse id="Oval-3" fill-opacity="0.35" fill="#1D283B" style="mix-blend-mode: multiply;" cx="213.556276" cy="383.880766" rx="13.5562761" ry="4.88076584"></ellipse>
            <ellipse id="Oval-3" fill-opacity="0.35" fill="#1D283B" style="mix-blend-mode: multiply;" cx="242.556276" cy="403.880766" rx="13.5562761" ry="4.88076584"></ellipse>
            <g id="Group-5" transform="translate(216.000000, 368.000000)" fill="#1D283B" fill-opacity="0.35">
                <path d="M13.6192846,42.7769049 C8.57367295,42.0662238 5,40.2983252 5,38.2299121 C5,36.4218359 7.73069815,34.8433875 11.7882592,34 C8.83296499,35.0452081 7,36.5004079 7,38.109744 C7,40.0296184 9.60859299,41.7301331 13.6192846,42.7769049 Z" id="Combined-Shape" style="mix-blend-mode: multiply;"></path>
                <path d="M87.8966645,8.25746942 C84.3357423,7.37792841 82,5.90212798 82,4.22991211 C82,2.89863509 83.4803933,1.69184617 85.8808146,0.811297802 C84.0652136,1.74563862 83,2.88290375 83,4.109744 C83,5.73866753 84.877855,7.20967991 87.8966645,8.25746942 Z" id="Combined-Shape" style="mix-blend-mode: multiply;"></path>
                <path d="M6,41.7769049 C2.48768183,41.2821902 0,40.0515322 0,38.611682 C0,37.3530559 1.90087572,36.2542767 4.72539858,35.6671833 C2.6681785,36.3947667 1.39222691,37.4077509 1.39222691,38.5280314 C1.39222691,39.8644818 3.20810359,41.0482329 6,41.7769049 Z" id="Combined-Shape" style="mix-blend-mode: multiply;"></path>
            </g>
            <path d="M263,408 C259.487682,407.51417 257,406.305612 257,404.89162 C257,403.655597 258.900876,402.57655 261.725399,402 C259.668179,402.714517 258.392227,403.70931 258.392227,404.809471 C258.392227,406.121921 260.208104,407.284414 263,408 Z" id="Combined-Shape" fill-opacity="0.35" fill="#1D283B" style="mix-blend-mode: multiply;" transform="translate(260.000000, 405.000000) scale(-1, 1) translate(-260.000000, -405.000000) "></path>
            <path d="M308,379 C310.790557,379.895991 315.550104,380.486132 320.952579,380.486132 C324.155536,380.486132 327.132508,380.278701 329.607158,379.923084 C327.203587,380.565829 323.800599,380.966816 320.027477,380.966816 C314.674131,380.966816 310.065871,380.159619 308,379 Z" id="Combined-Shape" fill-opacity="0.35" fill="#1D283B" style="mix-blend-mode: multiply;" transform="translate(318.803579, 379.983408) scale(-1, 1) translate(-318.803579, -379.983408) "></path>
            <path d="M200.250699,388.113251 C201.974791,389.486148 207.287405,390.486132 213.573877,390.486132 C218.726163,390.486132 223.224293,389.814426 225.628822,388.816234 C223.738869,390.073455 218.931665,390.966816 213.29984,390.966816 C206.66551,390.966816 201.175509,389.727098 200.250699,388.113251 Z" id="Combined-Shape" fill-opacity="0.35" fill="#1D283B" style="mix-blend-mode: multiply;" transform="translate(212.939760, 389.540033) scale(-1, 1) translate(-212.939760, -389.540033) "></path>
            <path d="M279,361.413104 C279.288027,361.409758 279.57776,361.408066 279.869054,361.408066 C290.15805,361.408066 298.498928,363.518575 298.498928,366.12202 C298.498928,366.703185 298.083291,367.259786 297.323128,367.773831 C297.448254,367.517362 297.512961,367.255296 297.512961,366.98887 C297.512961,363.986851 289.297754,361.538449 279,361.413104 Z" id="Combined-Shape" fill-opacity="0.35" fill="#1D283B" style="mix-blend-mode: multiply;" transform="translate(288.749464, 364.590948) scale(-1, -1) translate(-288.749464, -364.590948) "></path>
            <ellipse id="Oval-3" fill-opacity="0.35" fill="#1D283B" style="mix-blend-mode: multiply;" cx="315.556276" cy="371.880766" rx="13.5562761" ry="4.88076584"></ellipse>
            <ellipse id="Oval-3" fill-opacity="0.35" fill="#1D283B" style="mix-blend-mode: multiply;" cx="296.556276" cy="360.880766" rx="13.5562761" ry="4.88076584"></ellipse>
            <g id="Group">
                <path d="M70.864747,270.356563 C78.426057,273.100337 84.3815675,274.953016 88.7312787,275.9146 C93.6946898,277.011853 98.7368372,277.42846 103.857721,277.164419 L103.857723,277.164452 C107.0759,276.998518 109.822269,279.415856 109.991909,282.563727 C110.042227,283.497432 109.857268,284.428931 109.453294,285.27633 L107.816033,288.710742 C103.978582,296.760397 94.1964348,300.243025 85.966995,296.489409 C84.9900972,296.043826 84.0603642,295.505354 83.1912183,294.881765 C82.4051327,294.317858 81.5943816,293.725 80.7589221,293.103248 C75.2070478,288.971525 69.8944544,284.553946 64.821142,279.850512 C62.4821036,277.682055 62.3831237,274.069432 64.6000386,271.781518 C66.2080062,270.122054 68.6732193,269.561323 70.864747,270.356563 Z" id="Triangle" fill="#F7F7F7"></path>
                <polygon id="Path-4" fill="#5193E8" fill-rule="nonzero" points="497.664653 252.621731 492.335347 255.378269 477.335347 226.378269 482.664653 223.621731"></polygon>
                <polygon id="Path-4" fill="#5193E8" fill-rule="nonzero" points="501 256 495 256 495 217 501 217"></polygon>
                <polygon id="Path-4" fill="#5193E8" fill-rule="nonzero" points="501.737528 257.227168 496.262472 254.772832 509.262472 225.772832 514.737528 228.227168"></polygon>
                <polygon id="Path-4" fill="#5193E8" fill-rule="nonzero" points="500.153846 258.769231 497.846154 253.230769 521.846154 243.230769 524.153846 248.769231"></polygon>
                <path d="M447.028965,227.462591 L456.971035,228.537409 C454.548837,250.942744 459.147411,262.033421 469.935561,264.088307 C481.711444,266.331333 489.461898,262.456106 494.481311,251.859568 L503.518689,256.140432 C496.538102,270.877228 484.288556,277.002001 468.064439,273.911693 C450.852589,270.633245 444.11783,254.39059 447.028965,227.462591 Z" id="Path-3" fill="#88CCF0" fill-rule="nonzero"></path>
                <path d="M275,305 C283,339.666667 287.666667,358.333333 289,361 C291,365 297,363 299,361 C300.333333,359.666667 306,346.666667 316,322" id="Path-6" fill="#5193E8"></path>
                <path d="M146,291 C172,304 201,377 203,381 C205,385 213,383 215,381 C216.333333,379.666667 224.333333,358.333333 239,317" id="Path-6" fill="#5193E8"></path>
                <path d="M224,387 C216.359329,361.515592 176.927603,308.917865 161.64633,308.917865 C151.034498,308.917865 141.954277,329.122119 133.977138,338.06106 C126,347 113,360.408509 80,367.204254 C47,374 0,367.204254 0,361.375616 C0,357.489856 3.88339532,354.575537 11.6501859,352.632657 C11.6501859,340.975379 14.5627324,337.08962 20.3878254,340.975379 C29.1254649,346.804018 49.5132903,346.804018 72.8136622,335.14674 C96.1140341,323.489462 84.4638481,276.860351 64.0760227,238.974197 C43.6881973,201.088044 43.6881973,99.0868623 84.4638481,49.5434312 C125.239499,-1.65659883e-13 182.15603,0 234.581867,0 C287.007704,0 351.48671,17.4859169 401,49.5434312 C450.51329,81.6009454 480.051565,158.380967 463.094891,238.974197 C451.444705,294.346267 381,320.14674 360,335.14674 C324.311666,360.638408 326.831543,369.083062 323,371 C320.087454,372.45716 309,372.795746 307,371 C305,369.204254 302,340.975379 295,340.975379 C288,340.975379 281,340.975379 272,361.375616 C261.431377,385.331438 256.650186,405 245,405 C233.349814,405 233,407 224,387 Z" id="Combined-Shape" fill="#88CCF0"></path>
                <path d="M293.526663,6.43111979 C330.739399,14.1892515 368.99601,28.822361 401,49.5434312 C450.51329,81.6009454 480.051565,158.380967 463.094891,238.974197 C451.444705,294.346267 381,320.14674 360,335.14674 C324.311666,360.638408 326.831543,369.083062 323,371 C321.328969,371.836024 316.966985,372.303845 313.174179,372.211628 C376.84417,321.105703 419,248.921513 419,166 C419,90.0148312 366.642949,39.1459721 293.526657,6.43111868 Z" id="Combined-Shape" fill="#7BB9E8"></path>
                <path d="M207,207 L257.709652,221.788277 L262.814526,262.281362 C264.270646,273.831653 256.087704,284.375431 244.537413,285.831551 C241.961994,286.156228 239.348757,286.002421 236.829207,285.377868 L225.984981,282.689774 C214.832239,279.925205 207,269.914449 207,258.42417 L207,207 Z" id="Rectangle" fill="#66A6E7"></path>
                <path d="M70.7019727,254 C69.2166048,250.404078 67.6436939,246.834691 66,243.322451 C66.9475958,242.494709 68.1481729,242 69.4541918,242 C72.5170571,242 75,244.720864 75,248.07722 C75,250.963413 73.1639629,253.379686 70.7019727,254 Z" id="Combined-Shape" fill="#F7F7F7"></path>
                <circle id="Oval" fill="#F7F7F7" cx="169" cy="259" r="6"></circle>
                <path d="M137.325579,294.785406 C145.426362,295.411455 151.719233,295.594627 156.204192,295.334922 C161.321933,295.038576 166.322703,294.036027 171.206503,292.327275 L171.206514,292.327307 C174.275698,291.253455 177.62132,292.908627 178.67917,296.024236 C178.992944,296.948371 179.078264,297.936606 178.92763,298.902059 L178.317127,302.81493 C176.886215,311.986007 168.402386,318.243105 159.367965,316.790549 C158.295509,316.61812 157.242357,316.339047 156.223712,315.957361 C155.302439,315.612239 154.349064,315.244976 153.36356,314.85564 C146.814597,312.268392 140.416194,309.32643 134.168351,306.029756 L134.168334,306.029789 C131.287812,304.509882 130.166457,300.907309 131.663716,297.983216 C132.749705,295.86232 134.977693,294.603956 137.325579,294.785406 Z" id="Triangle" fill="#F7F7F7"></path>
                <path d="" id="Path-2" stroke="#979797"></path>
                <path d="" id="Path-5" stroke="#979797"></path>
            </g>
            <path d="M90,261 C96.5438213,269.536274 108.081516,272.62779 118.016768,268.50707 C117.316415,269.066392 116.565382,269.580348 115.765482,270.042171 C107.157999,275.011703 96.1516534,272.062562 91.1821207,263.455079 C90.7202986,262.655179 90.326863,261.834563 90,261 Z" id="Combined-Shape" fill="#66A6E7" transform="translate(104.008384, 266.728109) rotate(-7.000000) translate(-104.008384, -266.728109) "></path>
            <path d="M90,288 C94.9049286,294.398374 103.55302,296.715623 111,293.626933 C110.475049,294.046173 109.912112,294.43141 109.312546,294.777569 C102.860798,298.502488 94.6109787,296.291956 90.8860599,289.840207 C90.5399006,289.240641 90.2450006,288.625548 90,288 Z" id="Combined-Shape" fill="#66A6E7"></path>
            <path d="M90,299 C94.9049286,305.398374 103.55302,307.715623 111,304.626933 C110.475049,305.046173 109.912112,305.43141 109.312546,305.777569 C102.860798,309.502488 94.6109787,307.291956 90.8860599,300.840207 C90.5399006,300.240641 90.2450006,299.625548 90,299 Z" id="Combined-Shape" fill="#66A6E7" transform="translate(100.500000, 303.293511) rotate(5.000000) translate(-100.500000, -303.293511) "></path>
        </g>
    </g>
</svg>