<?xml version="1.0" encoding="UTF-8" standalone="no"?>
<svg width="2024px" height="1080px" viewBox="0 0 2024 1080" version="1.1" xmlns="http://www.w3.org/2000/svg" xmlns:xlink="http://www.w3.org/1999/xlink">
    <!-- Generator: Sketch 48.2 (47327) - http://www.bohemiancoding.com/sketch -->
    <title>Artboard</title>
    <desc>Created with Sketch.</desc>
    <defs></defs>
    <g id="High-fi" stroke="none" stroke-width="1" fill="none" fill-rule="evenodd">
        <g id="Artboard">
            <g id="ship" transform="translate(1658.430375, 734.520292) rotate(308.000000) translate(-1658.430375, -734.520292) translate(1462.430375, 481.020292)">
                <g id="Group-16" transform="translate(7.711475, 0.000000)">
                    <path d="M165.511475,75.4455696 L165.511475,103.967089 L165.497834,104.1317 L163.121701,118.36962 L219.881577,118.36962 L217.505445,104.1317 L217.491803,103.967089 L217.491803,75.4455696 L165.511475,75.4455696 Z" id="Rectangle-15" stroke="#3776FF" stroke-width="2"></path>
                    <polyline id="Rectangle-16" stroke="#3776FF" stroke-width="2" points="219.777049 119.36962 219.777049 125.787342 163.22623 125.787342 163.22623 119.36962"></polyline>
                    <polyline id="Rectangle-16" stroke="#3776FF" stroke-width="2" transform="translate(191.501639, 471.702532) scale(1, -1) translate(-191.501639, -471.702532) " points="219.777049 465.926582 213.35082 477.478481 169.652459 477.478481 163.22623 465.926582"></polyline>
                    <polyline id="Rectangle-16" stroke="#3776FF" stroke-width="2" points="219.777049 127.070886 219.777049 133.488608 163.22623 133.488608 163.22623 127.070886"></polyline>
                    <path d="M138.521311,133.772152 L244.481967,133.772152 L244.481967,78.1919732 C244.481967,76.7308812 244.136029,75.2904755 243.472363,73.9882871 L208.1618,4.70484275 C207.02508,2.43441363 204.701073,1 202.158636,1 L180.844642,1 C178.302206,1 175.978199,2.43441363 174.838249,4.71123655 L139.530916,73.9882871 C138.86725,75.2904755 138.521311,76.7308812 138.521311,78.1919732 L138.521311,133.772152 Z" id="Combined-Shape" stroke="#3776FF" stroke-width="2"></path>
                    <path d="M140.091803,75.7291139 L244.204855,75.7291139" id="Path-6" stroke="#3776FF" stroke-width="2"></path>
                    <path d="M167.081967,20.5367089 L215.921311,20.5367089" id="Path-6" stroke="#3776FF" stroke-width="2"></path>
                    <path d="M145.232787,451.807595 L235.20918,451.807595" id="Path-6" stroke="#3776FF" stroke-width="2"></path>
                    <path d="M167.081967,471.060759 L215.921311,471.060759" id="Path-6" stroke="#3776FF" stroke-width="2"></path>
                    <path d="M182.405912,26.9544304 L185.167335,20.0600125 L187.553977,21.0134052 L181.219672,36.8282007 L181.219672,37.2227848 L181.061629,37.2227848 L177.085258,47.1505528 L146.518033,61.6101266 L148.535954,57.8841765 L175.07212,45.2646371 L175.208535,44.9240506 L155.514754,44.9240506 L156.8,42.356962 L176.236731,42.356962 L178.293125,37.2227848 L158.085246,37.2227848 L160.655738,34.6556962 L179.321322,34.6556962 L181.377715,29.521519 L163.22623,29.521519 L163.22623,26.9544304 L182.405912,26.9544304 Z" id="Combined-Shape" fill="#3776FF" fill-rule="nonzero"></path>
                    <path d="M231.337181,27.4311268 L234.098604,20.5367089 L236.485246,21.4901016 L226.016527,47.6272492 L195.357377,62.8936709 L197.467224,58.3608729 L224.003389,45.7413335 L224.139804,45.400747 L204.446023,45.400747 L205.731269,42.8336584 L225.168001,42.8336584 L227.224394,37.6994812 L207.016515,37.6994812 L209.587007,35.1323926 L228.252591,35.1323926 L230.308984,29.9982154 L212.157499,29.9982154 L212.157499,27.4311268 L231.337181,27.4311268 Z" id="Combined-Shape" fill="#3776FF" fill-rule="nonzero" transform="translate(215.921311, 41.715190) scale(-1, 1) translate(-215.921311, -41.715190) "></path>
                    <path d="M170.937705,12.835443 L212.065574,12.835443" id="Path-6" stroke="#3776FF" stroke-width="2"></path>
                    <path d="M177.466696,47.2075949 L180.654883,56.7594937 L202.348395,56.7594937 L205.536583,47.2075949 L177.466696,47.2075949 Z" id="Rectangle-14" stroke="#3776FF" stroke-width="2"></path>
                    <path d="M164.964334,102.989106 L166.629109,104.945071 L139.259416,128.35443 L139.259416,124.809359 L164.964334,102.989106 Z M140.557636,135.968421 L139.625971,133.575883 L162.760397,124.591072 L163.692062,126.983611 L140.557636,135.968421 Z" id="Path-8" fill="#3776FF" fill-rule="nonzero"></path>
                    <path d="M242.531946,102.683544 L244.196721,104.63951 L216.827028,128.35443 L216.827028,124.503797 L242.531946,102.683544 Z M218.125248,135.66286 L215.921311,133.488608 L240.328009,124.285511 L241.259675,126.67805 L218.125248,135.66286 Z" id="Path-8" fill="#3776FF" fill-rule="nonzero" transform="translate(230.059016, 119.173202) scale(-1, 1) translate(-230.059016, -119.173202) "></path>
                    <g id="Group-12" transform="translate(122.098361, 132.205063)" fill="#3776FF" fill-rule="nonzero">
                        <path d="M41.1278689,62.0193106 L41.1278689,91.0891885 L53.9803279,85.5882843 L53.9803279,56.5184065 L41.1278689,62.0193106 Z M53.9803279,53.7254973 L54.9928942,53.2921148 L56.5508197,54.3180448 L56.5508197,55.4182257 L53.9803279,56.5184065 L53.9803279,53.7254973 Z M38.557377,60.3265823 L56.5508197,52.6253165 L56.5508197,87.2810127 L38.557377,94.9822785 L38.557377,60.3265823 Z" id="Rectangle-17"></path>
                        <path d="M10.4176542,3.27661445 C10.6182484,2.87595721 11.0134864,2.60872237 11.4604793,2.57152228 L42.3063809,0.00443367233 C42.7416395,-0.0317898597 43.1655297,0.155219596 43.4318315,0.50095353 L56.2842905,17.1870295 C56.4571152,17.4114041 56.5508197,17.686542 56.5508197,17.9696203 L56.5508197,105.250633 C56.5508197,105.803109 56.1968243,106.293602 55.6720042,106.46831 L13.2588895,120.587297 C13.0379003,120.660863 12.801046,120.673065 12.57365,120.6226 L1.00643692,118.055511 C0.418388652,117.925007 0,117.404127 0,116.802532 L0,24.3873418 C0,24.1880778 0.046455331,23.9915504 0.13568702,23.8133233 L10.4176542,3.27661445 Z M2.5704918,24.6903455 L2.5704918,115.772909 L12.7837527,118.039518 L53.9803279,104.325507 L53.9803279,18.4061818 L41.8216021,2.62076511 L12.3937503,5.06983934 L2.5704918,24.6903455 Z" id="Path-11"></path>
                        <polygon id="Path-12" points="1.61087502 55.1505259 0.959616782 52.6671957 54.9399447 38.5482083 55.5912029 41.0315385"></polygon>
                        <path d="M1.69167634,88.4986897 L0.878815461,86.0633356 L12.2988895,82.2616841 C13.1311262,81.9846392 13.9905659,82.6032681 13.9905659,83.4793612 L13.9905659,90.660562 L27.5994511,86.3420751 L27.5994511,78.0933757 C27.5994511,77.5408992 27.9534465,77.0504071 28.4782666,76.8756986 L39.4361925,73.2278926 L40.2490534,75.6632467 L30.1699429,79.0185021 L30.1699429,87.2810127 C30.1699429,87.8401537 29.8075,88.3349637 29.273907,88.5042879 L13.09453,93.6384652 C12.2657149,93.9014718 11.4200741,93.2836881 11.4200741,92.4151899 L11.4200741,85.2601838 L1.69167634,88.4986897 Z" id="Path-13"></path>
                    </g>
                    <g id="Group-12" transform="translate(232.629508, 192.531646) scale(-1, 1) translate(-232.629508, -192.531646) translate(204.354098, 132.205063)" fill="#3776FF" fill-rule="nonzero">
                        <path d="M41.1278689,62.0193106 L41.1278689,91.0891885 L53.9803279,85.5882843 L53.9803279,56.5184065 L41.1278689,62.0193106 Z M53.9803279,53.7254973 L54.9928942,53.2921148 L56.5508197,54.3180448 L56.5508197,55.4182257 L53.9803279,56.5184065 L53.9803279,53.7254973 Z M38.557377,60.3265823 L56.5508197,52.6253165 L56.5508197,87.2810127 L38.557377,94.9822785 L38.557377,60.3265823 Z" id="Rectangle-17"></path>
                        <path d="M10.4176542,3.27661445 C10.6182484,2.87595721 11.0134864,2.60872237 11.4604793,2.57152228 L42.3063809,0.00443367233 C42.7416395,-0.0317898597 43.1655297,0.155219596 43.4318315,0.50095353 L56.2842905,17.1870295 C56.4571152,17.4114041 56.5508197,17.686542 56.5508197,17.9696203 L56.5508197,105.250633 C56.5508197,105.803109 56.1968243,106.293602 55.6720042,106.46831 L13.2588895,120.587297 C13.0379003,120.660863 12.801046,120.673065 12.57365,120.6226 L1.00643692,118.055511 C0.418388652,117.925007 0,117.404127 0,116.802532 L0,24.3873418 C0,24.1880778 0.046455331,23.9915504 0.13568702,23.8133233 L10.4176542,3.27661445 Z M2.5704918,24.6903455 L2.5704918,115.772909 L12.7837527,118.039518 L53.9803279,104.325507 L53.9803279,18.4061818 L41.8216021,2.62076511 L12.3937503,5.06983934 L2.5704918,24.6903455 Z" id="Path-11"></path>
                        <polygon id="Path-12" points="1.61087502 55.1505259 0.959616782 52.6671957 54.9399447 38.5482083 55.5912029 41.0315385"></polygon>
                        <path d="M1.69167634,88.4986897 L0.878815461,86.0633356 L12.2988895,82.2616841 C13.1311262,81.9846392 13.9905659,82.6032681 13.9905659,83.4793612 L13.9905659,90.660562 L27.5994511,86.3420751 L27.5994511,78.0933757 C27.5994511,77.5408992 27.9534465,77.0504071 28.4782666,76.8756986 L39.4361925,73.2278926 L40.2490534,75.6632467 L30.1699429,79.0185021 L30.1699429,87.2810127 C30.1699429,87.8401537 29.8075,88.3349637 29.273907,88.5042879 L13.09453,93.6384652 C12.2657149,93.9014718 11.4200741,93.2836881 11.4200741,92.4151899 L11.4200741,85.2601838 L1.69167634,88.4986897 Z" id="Path-13"></path>
                    </g>
                    <g id="Group-13" transform="translate(93.822951, 196.382278)">
                        <path d="M43.4354401,109.606927 C43.6059934,109.830482 43.6983607,110.103762 43.6983607,110.38481 L43.6983607,201.516456 C43.6983607,202.721818 42.1851201,203.262462 41.4195254,202.330629 L0.291656521,152.272401 C0.103071239,152.042867 0,151.755139 0,151.458228 L0,32.0886076 C0,31.7674755 0.120537026,31.4580089 0.337821564,31.2212851 L28.6132314,0.416221806 L30.5080801,2.1508668 L2.5704918,32.5878854 L2.5704918,150.99904 L41.1278689,197.928629 L41.1278689,110.818067 L20.826855,84.2082631 C20.6563017,83.9847083 20.5639344,83.7114281 20.5639344,83.4303797 L20.5639344,35.9218985 C20.5639344,35.6438214 20.6543616,35.3732651 20.8216098,35.1509388 L28.5330852,24.8999264 L30.5882263,26.4418457 L23.1344262,36.3503254 L23.1344262,82.9971228 L43.4354401,109.606927 Z" id="Path-14" fill="#3776FF" fill-rule="nonzero"></path>
                        <path d="M39.5302856,55.1924051 L42.1007774,55.1924051 L42.1007774,78.264438 C42.1007774,78.6048551 41.9653679,78.9313296 41.7243376,79.1720409 L28.8077761,92.0715015 L26.9901639,90.2562957 L39.5302856,77.7327765 L39.5302856,55.1924051 Z" id="Path-15" fill="#3776FF" fill-rule="nonzero"></path>
                        <polygon id="Path-16" fill="#3776FF" fill-rule="nonzero" points="82.2557377 38.5063291 84.8262295 38.5063291 84.8262295 73.1857865 82.2557377 73.1857865"></polygon>
                        <polygon id="Path-17" fill="#3776FF" fill-rule="nonzero" points="42.8574311 161.647443 41.9687984 159.238633 66.3884705 150.253823 67.2771033 152.662633"></polygon>
                        <path d="M65.2622951,90.1207206 L65.2622951,151.741772 L130.095082,151.741772 L130.095082,90.1207206 L117.892339,69.4035222 L112.093063,72.878481 L83.2643142,72.878481 L77.4650382,69.4035222 L65.2622951,90.1207206 Z" id="Rectangle-18" stroke="#3776FF" stroke-width="2"></path>
                        <rect id="Rectangle-19" stroke="#3776FF" stroke-width="2" x="93.8229508" y="73.1620253" width="8.99672131" height="97.5493671"></rect>
                        <polygon id="Rectangle-20" stroke="#3776FF" stroke-width="2" stroke-linejoin="round" points="65.547541 151.458228 128.52459 151.458228 115.672131 170.711392 78.4 170.711392"></polygon>
                        <polygon id="Rectangle-20" stroke="#3776FF" stroke-width="2" stroke-linejoin="round" transform="translate(97.036066, 180.337975) scale(1, -1) translate(-97.036066, -180.337975) " points="69.4032787 170.711392 124.668852 170.711392 115.672131 189.964557 78.4 189.964557"></polygon>
                    </g>
                    <g id="Group-13" transform="translate(246.767213, 298.424051) scale(-1, 1) translate(-246.767213, -298.424051) translate(204.354098, 196.382278)" fill="#3776FF" fill-rule="nonzero">
                        <path d="M43.4354401,109.606927 C43.6059934,109.830482 43.6983607,110.103762 43.6983607,110.38481 L43.6983607,201.516456 C43.6983607,202.721818 42.1851201,203.262462 41.4195254,202.330629 L0.291656521,152.272401 C0.103071239,152.042867 0,151.755139 0,151.458228 L0,32.0886076 C0,31.7674755 0.120537026,31.4580089 0.337821564,31.2212851 L28.6132314,0.416221806 L30.5080801,2.1508668 L2.5704918,32.5878854 L2.5704918,150.99904 L41.1278689,197.928629 L41.1278689,110.818067 L20.826855,84.2082631 C20.6563017,83.9847083 20.5639344,83.7114281 20.5639344,83.4303797 L20.5639344,35.9218985 C20.5639344,35.6438214 20.6543616,35.3732651 20.8216098,35.1509388 L28.5330852,24.8999264 L30.5882263,26.4418457 L23.1344262,36.3503254 L23.1344262,82.9971228 L43.4354401,109.606927 Z" id="Path-14"></path>
                        <path d="M39.9067254,55.160152 L42.4772172,55.160152 L42.4772172,78.232185 C42.4772172,78.5726021 42.3418077,78.8990766 42.1007774,79.1397878 L29.1842159,92.0392485 L27.3666037,90.2240427 L39.9067254,77.7005235 L39.9067254,55.160152 Z" id="Path-15"></path>
                        <polygon id="Path-16" points="82.2557377 38.5063291 84.8262295 38.5063291 84.8262295 73.1857865 82.2557377 73.1857865"></polygon>
                        <polygon id="Path-17" points="42.8574311 161.647443 41.9687984 159.238633 66.3884705 150.253823 67.2771033 152.662633"></polygon>
                    </g>
                    <polygon id="Rectangle-21" stroke="#3776FF" stroke-width="2" stroke-linejoin="round" points="163.22623 386.346835 218.491803 386.346835 245.481967 436.405063 219.777049 477.478481 161.940984 477.478481 136.236066 436.405063"></polygon>
                    <g id="turbo" transform="translate(280.183607, 292.648101)">
                        <g id="Group-14" transform="translate(0.000000, 8.984810)" fill="#3776FF" fill-rule="nonzero">
                            <path d="M24.4196721,17.7493989 L24.4196721,87.501234 L30.8459016,93.9189556 L30.8459016,11.3316773 L24.4196721,17.7493989 Z M30.8459016,7.70126582 L32.6635138,5.88606006 L33.4163934,6.19750013 L33.4163934,8.76458874 L30.8459016,11.3316773 L30.8459016,7.70126582 Z M21.8491803,16.6860759 L33.4163934,5.13417722 L33.4163934,100.116456 L21.8491803,88.564557 L21.8491803,16.6860759 Z" id="Rectangle-22"></path>
                            <path d="M33.4163934,83.4303797 L33.4163934,91.1316456 L42.4131148,91.1316456 L42.4131148,83.4303797 L33.4163934,83.4303797 Z M44.9836066,80.8632911 L44.9836066,93.6987342 L30.8459016,93.6987342 L30.8459016,80.8632911 L44.9836066,80.8632911 Z" id="Rectangle-24"></path>
                            <polygon id="Path-19" points="33.0399536 13.7430459 31.2223414 11.9278402 42.7895546 0.375941423 44.6071667 2.19114718"></polygon>
                            <polygon id="Path-19" points="33.0399536 22.727856 31.2223414 20.9126503 42.7895546 9.36075155 44.6071667 11.1759573"></polygon>
                            <polygon id="Path-19" points="33.0399536 31.7126662 31.2223414 29.8974604 42.7895546 18.3455617 44.6071667 20.1607674"></polygon>
                            <polygon id="Path-19" points="33.0399536 40.6974763 31.2223414 38.8822705 42.7895546 27.3303718 44.6071667 29.1455776"></polygon>
                            <polygon id="Path-19" points="33.0399536 49.6822864 31.2223414 47.8670807 42.7895546 36.3151819 44.6071667 38.1303877"></polygon>
                            <polygon id="Path-19" points="33.0399536 58.6670966 31.2223414 56.8518908 42.7895546 45.2999921 44.6071667 47.1151978"></polygon>
                            <polygon id="Path-19" points="33.0399536 67.6519067 31.2223414 65.8367009 42.7895546 54.2848022 44.6071667 56.1000079"></polygon>
                            <polygon id="Path-19" points="33.0399536 76.6367168 31.2223414 74.821511 42.7895546 63.2696123 44.6071667 65.0848181"></polygon>
                            <path d="M38.6156771,92.4151745 L41.1861689,92.4151745 L41.1861689,202.858223 C41.1861689,204.031295 39.7404123,204.589664 38.9500948,203.721822 L26.0393357,189.544612 C25.9073526,189.399682 25.8103394,189.226505 25.7557285,189.038346 L0.050810441,100.473789 C-0.0725358853,100.048808 0.0319970125,99.5903449 0.327427558,99.260595 L22.1766079,74.8732532 L24.0922446,76.5849747 L2.71795466,100.442259 L28.1415953,188.037694 L38.6156771,199.539207 L38.6156771,92.4151745 Z" id="Path-20"></path>
                            <polygon id="Path-21" points="22.1738215 82.5776393 24.095031 84.2831202 3.53109657 107.386918 1.60988704 105.681437"></polygon>
                            <path d="M34.7016393,92.4151899 L37.2721311,92.4151899 L37.2721311,110.430593 C37.2721311,110.756231 37.1481954,111.069697 36.9254289,111.307492 L18.9319862,130.514874 C18.5121501,130.963035 17.8333813,131.051685 17.3122637,130.726418 L7.03029644,124.308697 L8.39265438,122.13181 L17.7775891,127.989628 L34.7016393,109.923786 L34.7016393,92.4151899 Z M18.6746216,128.549531 L17.054899,128.761075 L17.7775891,127.989628 L18.6746216,128.549531 Z" id="Path-22"></path>
                            <path d="M16.7576479,129.990591 L19.2292373,129.285358 L26.9407127,156.239788 C27.0290515,156.548565 26.9982819,156.879194 26.8544769,157.166424 L21.7134933,167.434778 L19.4143755,166.286741 L24.3317793,156.464954 L16.7576479,129.990591 Z" id="Path-23"></path>
                        </g>
                        <g id="Group-14" transform="translate(81.613115, 111.668354) scale(-1, 1) translate(-81.613115, -111.668354) translate(59.121311, 8.984810)" fill="#3776FF" fill-rule="nonzero">
                            <path d="M24.4196721,17.7493989 L24.4196721,87.501234 L30.8459016,93.9189556 L30.8459016,11.3316773 L24.4196721,17.7493989 Z M30.8459016,7.70126582 L32.6635138,5.88606006 L33.4163934,6.19750013 L33.4163934,8.76458874 L30.8459016,11.3316773 L30.8459016,7.70126582 Z M21.8491803,16.6860759 L33.4163934,5.13417722 L33.4163934,100.116456 L21.8491803,88.564557 L21.8491803,16.6860759 Z" id="Rectangle-22"></path>
                            <path d="M15.4229508,35.9050144 L15.4229508,57.7594937 L21.8491803,64.1429891 L21.8491803,29.521519 L15.4229508,35.9050144 Z M21.8491803,26.0987342 L23.6667925,24.3873418 L24.4196721,24.6809703 L24.4196721,27.1012446 L21.8491803,29.521519 L21.8491803,26.0987342 Z M12.852459,34.6556962 L24.4196721,23.1037975 L24.4196721,70.5607106 L12.852459,59.0088119 L12.852459,34.6556962 Z" id="Rectangle-22"></path>
                            <path d="M33.4163934,83.4303797 L33.4163934,91.1316456 L42.4131148,91.1316456 L42.4131148,83.4303797 L33.4163934,83.4303797 Z M44.9836066,80.8632911 L44.9836066,93.6987342 L30.8459016,93.6987342 L30.8459016,80.8632911 L44.9836066,80.8632911 Z" id="Rectangle-24"></path>
                            <polygon id="Path-19" points="33.0399536 13.7430459 31.2223414 11.9278402 42.7895546 0.375941423 44.6071667 2.19114718"></polygon>
                            <polygon id="Path-19" points="33.0399536 22.727856 31.2223414 20.9126503 42.7895546 9.36075155 44.6071667 11.1759573"></polygon>
                            <polygon id="Path-19" points="33.0399536 31.7126662 31.2223414 29.8974604 42.7895546 18.3455617 44.6071667 20.1607674"></polygon>
                            <polygon id="Path-19" points="33.0399536 40.6974763 31.2223414 38.8822705 42.7895546 27.3303718 44.6071667 29.1455776"></polygon>
                            <polygon id="Path-19" points="33.0399536 49.6822864 31.2223414 47.8670807 42.7895546 36.3151819 44.6071667 38.1303877"></polygon>
                            <polygon id="Path-19" points="33.0399536 58.6670966 31.2223414 56.8518908 42.7895546 45.2999921 44.6071667 47.1151978"></polygon>
                            <polygon id="Path-19" points="33.0399536 67.6519067 31.2223414 65.8367009 42.7895546 54.2848022 44.6071667 56.1000079"></polygon>
                            <polygon id="Path-19" points="33.0399536 76.6367168 31.2223414 74.821511 42.7895546 63.2696123 44.6071667 65.0848181"></polygon>
                            <path d="M38.6156771,92.4151745 L41.1861689,92.4151745 L41.1861689,202.858223 C41.1861689,204.031295 39.7404123,204.589664 38.9500948,203.721822 L26.0393357,189.544612 C25.9073526,189.399682 25.8103394,189.226505 25.7557285,189.038346 L0.050810441,100.473789 C-0.0725358853,100.048808 0.0319970125,99.5903449 0.327427558,99.260595 L22.1766079,74.8732532 L24.0922446,76.5849747 L2.71795466,100.442259 L28.1415953,188.037694 L38.6156771,199.539207 L38.6156771,92.4151745 Z" id="Path-20"></path>
                            <polygon id="Path-21" points="22.1738215 82.5776393 24.095031 84.2831202 3.53109657 107.386918 1.60988704 105.681437"></polygon>
                            <path d="M34.7016393,92.4151899 L37.2721311,92.4151899 L37.2721311,110.430593 C37.2721311,110.756231 37.1481954,111.069697 36.9254289,111.307492 L18.9319862,130.514874 C18.5121501,130.963035 17.8333813,131.051685 17.3122637,130.726418 L7.03029644,124.308697 L8.39265438,122.13181 L17.7775891,127.989628 L34.7016393,109.923786 L34.7016393,92.4151899 Z M18.6746216,128.549531 L17.054899,128.761075 L17.7775891,127.989628 L18.6746216,128.549531 Z" id="Path-22"></path>
                            <path d="M16.7576479,129.990591 L19.2292373,129.285358 L26.9407127,156.239788 C27.0290515,156.548565 26.9982819,156.879194 26.8544769,157.166424 L21.7134933,167.434778 L19.4143755,166.286741 L24.3317793,156.464954 L16.7576479,129.990591 Z" id="Path-23"></path>
                        </g>
                        <g id="Group-15" transform="translate(38.557377, 0.000000)">
                            <path d="M4.8557377,5.54877886 L4.8557377,106.817722 L22.1344262,106.817722 L22.1344262,5.54877886 L17.579617,1 L9.4105469,1 L4.8557377,5.54877886 Z" id="Rectangle-23" stroke="#3776FF" stroke-width="2"></path>
                            <path d="M1.2852459,115.518987 L25.704918,115.518987" id="Path-24" stroke="#3776FF" stroke-width="2"></path>
                            <path d="M1.2852459,121.936709 L25.704918,121.936709" id="Path-24" stroke="#3776FF" stroke-width="2"></path>
                            <path d="M1.2852459,128.35443 L25.704918,128.35443" id="Path-24" stroke="#3776FF" stroke-width="2"></path>
                            <path d="M7.71147541,141.189873 L19.2786885,141.189873" id="Path-24" stroke="#3776FF" stroke-width="2"></path>
                            <path d="M7.71147541,147.607595 L19.2786885,147.607595" id="Path-24" stroke="#3776FF" stroke-width="2"></path>
                            <path d="M7.71147541,154.025316 L19.2786885,154.025316" id="Path-24" stroke="#3776FF" stroke-width="2"></path>
                            <path d="M7.71147541,160.443038 L19.2786885,160.443038" id="Path-24" stroke="#3776FF" stroke-width="2"></path>
                            <path d="M7.71147541,166.860759 L19.2786885,166.860759" id="Path-24" stroke="#3776FF" stroke-width="2"></path>
                            <path d="M7.71147541,173.278481 L19.2786885,173.278481" id="Path-24" stroke="#3776FF" stroke-width="2"></path>
                            <path d="M7.71147541,179.696203 L19.2786885,179.696203" id="Path-24" stroke="#3776FF" stroke-width="2"></path>
                            <path d="M7.71147541,186.113924 L19.2786885,186.113924" id="Path-24" stroke="#3776FF" stroke-width="2"></path>
                            <path d="M2.5704918,136.055696 L2.5704918,191.248101 L24.4196721,191.248101 L24.4196721,136.055696 L2.5704918,136.055696 Z M0,133.488608 L26.9901639,133.488608 L26.9901639,193.81519 L0,193.81519 L0,133.488608 Z" id="Rectangle-25" fill="#3776FF" fill-rule="nonzero"></path>
                            <polygon id="Path-25" fill="#3776FF" fill-rule="nonzero" points="0.376439809 135.679755 2.19405199 133.864549 8.99672131 140.658212 8.99672131 192.531646 6.42622951 192.531646 6.42622951 141.721535"></polygon>
                            <polygon id="Path-25" fill="#3776FF" fill-rule="nonzero" transform="translate(22.303583, 162.822156) scale(-1, 1) translate(-22.303583, -162.822156) " points="17.9934426 135.303813 19.8110548 133.488608 26.6137241 140.282271 26.6137241 192.155704 24.0432323 192.155704 24.0432323 141.345593"></polygon>
                        </g>
                    </g>
                    <g id="turbo" transform="translate(52.052459, 399.824051) scale(-1, 1) translate(-52.052459, -399.824051) translate(0.000000, 292.648101)">
                        <g id="Group-14" transform="translate(0.000000, 8.984810)" fill="#3776FF" fill-rule="nonzero">
                            <path d="M24.4196721,17.7493989 L24.4196721,87.501234 L30.8459016,93.9189556 L30.8459016,11.3316773 L24.4196721,17.7493989 Z M30.8459016,7.70126582 L32.6635138,5.88606006 L33.4163934,6.19750013 L33.4163934,8.76458874 L30.8459016,11.3316773 L30.8459016,7.70126582 Z M21.8491803,16.6860759 L33.4163934,5.13417722 L33.4163934,100.116456 L21.8491803,88.564557 L21.8491803,16.6860759 Z" id="Rectangle-22"></path>
                            <path d="M33.4163934,83.4303797 L33.4163934,91.1316456 L42.4131148,91.1316456 L42.4131148,83.4303797 L33.4163934,83.4303797 Z M44.9836066,80.8632911 L44.9836066,93.6987342 L30.8459016,93.6987342 L30.8459016,80.8632911 L44.9836066,80.8632911 Z" id="Rectangle-24"></path>
                            <polygon id="Path-19" points="33.0399536 13.7430459 31.2223414 11.9278402 42.7895546 0.375941423 44.6071667 2.19114718"></polygon>
                            <polygon id="Path-19" points="33.0399536 22.727856 31.2223414 20.9126503 42.7895546 9.36075155 44.6071667 11.1759573"></polygon>
                            <polygon id="Path-19" points="33.0399536 31.7126662 31.2223414 29.8974604 42.7895546 18.3455617 44.6071667 20.1607674"></polygon>
                            <polygon id="Path-19" points="33.0399536 40.6974763 31.2223414 38.8822705 42.7895546 27.3303718 44.6071667 29.1455776"></polygon>
                            <polygon id="Path-19" points="33.0399536 49.6822864 31.2223414 47.8670807 42.7895546 36.3151819 44.6071667 38.1303877"></polygon>
                            <polygon id="Path-19" points="33.0399536 58.6670966 31.2223414 56.8518908 42.7895546 45.2999921 44.6071667 47.1151978"></polygon>
                            <polygon id="Path-19" points="33.0399536 67.6519067 31.2223414 65.8367009 42.7895546 54.2848022 44.6071667 56.1000079"></polygon>
                            <polygon id="Path-19" points="33.0399536 76.6367168 31.2223414 74.821511 42.7895546 63.2696123 44.6071667 65.0848181"></polygon>
                            <path d="M38.6156771,92.4151745 L41.1861689,92.4151745 L41.1861689,202.858223 C41.1861689,204.031295 39.7404123,204.589664 38.9500948,203.721822 L26.0393357,189.544612 C25.9073526,189.399682 25.8103394,189.226505 25.7557285,189.038346 L0.050810441,100.473789 C-0.0725358853,100.048808 0.0319970125,99.5903449 0.327427558,99.260595 L22.1766079,74.8732532 L24.0922446,76.5849747 L2.71795466,100.442259 L28.1415953,188.037694 L38.6156771,199.539207 L38.6156771,92.4151745 Z" id="Path-20"></path>
                            <polygon id="Path-21" points="22.1738215 82.5776393 24.095031 84.2831202 3.53109657 107.386918 1.60988704 105.681437"></polygon>
                            <path d="M34.7016393,92.4151899 L37.2721311,92.4151899 L37.2721311,110.430593 C37.2721311,110.756231 37.1481954,111.069697 36.9254289,111.307492 L18.9319862,130.514874 C18.5121501,130.963035 17.8333813,131.051685 17.3122637,130.726418 L7.03029644,124.308697 L8.39265438,122.13181 L17.7775891,127.989628 L34.7016393,109.923786 L34.7016393,92.4151899 Z M18.6746216,128.549531 L17.054899,128.761075 L17.7775891,127.989628 L18.6746216,128.549531 Z" id="Path-22"></path>
                            <path d="M16.7576479,129.990591 L19.2292373,129.285358 L26.9407127,156.239788 C27.0290515,156.548565 26.9982819,156.879194 26.8544769,157.166424 L21.7134933,167.434778 L19.4143755,166.286741 L24.3317793,156.464954 L16.7576479,129.990591 Z" id="Path-23"></path>
                        </g>
                        <g id="Group-14" transform="translate(81.613115, 111.668354) scale(-1, 1) translate(-81.613115, -111.668354) translate(59.121311, 8.984810)" fill="#3776FF" fill-rule="nonzero">
                            <path d="M24.4196721,17.7493989 L24.4196721,87.501234 L30.8459016,93.9189556 L30.8459016,11.3316773 L24.4196721,17.7493989 Z M30.8459016,7.70126582 L32.6635138,5.88606006 L33.4163934,6.19750013 L33.4163934,8.76458874 L30.8459016,11.3316773 L30.8459016,7.70126582 Z M21.8491803,16.6860759 L33.4163934,5.13417722 L33.4163934,100.116456 L21.8491803,88.564557 L21.8491803,16.6860759 Z" id="Rectangle-22"></path>
                            <path d="M15.4229508,35.9050144 L15.4229508,57.7594937 L21.8491803,64.1429891 L21.8491803,29.521519 L15.4229508,35.9050144 Z M21.8491803,26.0987342 L23.6667925,24.3873418 L24.4196721,24.6809703 L24.4196721,27.1012446 L21.8491803,29.521519 L21.8491803,26.0987342 Z M12.852459,34.6556962 L24.4196721,23.1037975 L24.4196721,70.5607106 L12.852459,59.0088119 L12.852459,34.6556962 Z" id="Rectangle-22"></path>
                            <path d="M33.4163934,83.4303797 L33.4163934,91.1316456 L42.4131148,91.1316456 L42.4131148,83.4303797 L33.4163934,83.4303797 Z M44.9836066,80.8632911 L44.9836066,93.6987342 L30.8459016,93.6987342 L30.8459016,80.8632911 L44.9836066,80.8632911 Z" id="Rectangle-24"></path>
                            <polygon id="Path-19" points="33.0399536 13.7430459 31.2223414 11.9278402 42.7895546 0.375941423 44.6071667 2.19114718"></polygon>
                            <polygon id="Path-19" points="33.0399536 22.727856 31.2223414 20.9126503 42.7895546 9.36075155 44.6071667 11.1759573"></polygon>
                            <polygon id="Path-19" points="33.0399536 31.7126662 31.2223414 29.8974604 42.7895546 18.3455617 44.6071667 20.1607674"></polygon>
                            <polygon id="Path-19" points="33.0399536 40.6974763 31.2223414 38.8822705 42.7895546 27.3303718 44.6071667 29.1455776"></polygon>
                            <polygon id="Path-19" points="33.0399536 49.6822864 31.2223414 47.8670807 42.7895546 36.3151819 44.6071667 38.1303877"></polygon>
                            <polygon id="Path-19" points="33.0399536 58.6670966 31.2223414 56.8518908 42.7895546 45.2999921 44.6071667 47.1151978"></polygon>
                            <polygon id="Path-19" points="33.0399536 67.6519067 31.2223414 65.8367009 42.7895546 54.2848022 44.6071667 56.1000079"></polygon>
                            <polygon id="Path-19" points="33.0399536 76.6367168 31.2223414 74.821511 42.7895546 63.2696123 44.6071667 65.0848181"></polygon>
                            <path d="M38.6156771,92.4151745 L41.1861689,92.4151745 L41.1861689,202.858223 C41.1861689,204.031295 39.7404123,204.589664 38.9500948,203.721822 L26.0393357,189.544612 C25.9073526,189.399682 25.8103394,189.226505 25.7557285,189.038346 L0.050810441,100.473789 C-0.0725358853,100.048808 0.0319970125,99.5903449 0.327427558,99.260595 L22.1766079,74.8732532 L24.0922446,76.5849747 L2.71795466,100.442259 L28.1415953,188.037694 L38.6156771,199.539207 L38.6156771,92.4151745 Z" id="Path-20"></path>
                            <polygon id="Path-21" points="22.1738215 82.5776393 24.095031 84.2831202 3.53109657 107.386918 1.60988704 105.681437"></polygon>
                            <path d="M34.7016393,92.4151899 L37.2721311,92.4151899 L37.2721311,110.430593 C37.2721311,110.756231 37.1481954,111.069697 36.9254289,111.307492 L18.9319862,130.514874 C18.5121501,130.963035 17.8333813,131.051685 17.3122637,130.726418 L7.03029644,124.308697 L8.39265438,122.13181 L17.7775891,127.989628 L34.7016393,109.923786 L34.7016393,92.4151899 Z M18.6746216,128.549531 L17.054899,128.761075 L17.7775891,127.989628 L18.6746216,128.549531 Z" id="Path-22"></path>
                            <path d="M16.7576479,129.990591 L19.2292373,129.285358 L26.9407127,156.239788 C27.0290515,156.548565 26.9982819,156.879194 26.8544769,157.166424 L21.7134933,167.434778 L19.4143755,166.286741 L24.3317793,156.464954 L16.7576479,129.990591 Z" id="Path-23"></path>
                        </g>
                        <g id="Group-15" transform="translate(38.557377, 0.000000)">
                            <path d="M4.8557377,5.54877886 L4.8557377,106.817722 L22.1344262,106.817722 L22.1344262,5.54877886 L17.579617,1 L9.4105469,1 L4.8557377,5.54877886 Z" id="Rectangle-23" stroke="#3776FF" stroke-width="2"></path>
                            <path d="M1.2852459,115.518987 L25.704918,115.518987" id="Path-24" stroke="#3776FF" stroke-width="2"></path>
                            <path d="M1.2852459,121.936709 L25.704918,121.936709" id="Path-24" stroke="#3776FF" stroke-width="2"></path>
                            <path d="M1.2852459,128.35443 L25.704918,128.35443" id="Path-24" stroke="#3776FF" stroke-width="2"></path>
                            <path d="M7.71147541,141.189873 L19.2786885,141.189873" id="Path-24" stroke="#3776FF" stroke-width="2"></path>
                            <path d="M7.71147541,147.607595 L19.2786885,147.607595" id="Path-24" stroke="#3776FF" stroke-width="2"></path>
                            <path d="M7.71147541,154.025316 L19.2786885,154.025316" id="Path-24" stroke="#3776FF" stroke-width="2"></path>
                            <path d="M7.71147541,160.443038 L19.2786885,160.443038" id="Path-24" stroke="#3776FF" stroke-width="2"></path>
                            <path d="M7.71147541,166.860759 L19.2786885,166.860759" id="Path-24" stroke="#3776FF" stroke-width="2"></path>
                            <path d="M7.71147541,173.278481 L19.2786885,173.278481" id="Path-24" stroke="#3776FF" stroke-width="2"></path>
                            <path d="M7.71147541,179.696203 L19.2786885,179.696203" id="Path-24" stroke="#3776FF" stroke-width="2"></path>
                            <path d="M7.71147541,186.113924 L19.2786885,186.113924" id="Path-24" stroke="#3776FF" stroke-width="2"></path>
                            <path d="M2.5704918,136.055696 L2.5704918,191.248101 L24.4196721,191.248101 L24.4196721,136.055696 L2.5704918,136.055696 Z M0,133.488608 L26.9901639,133.488608 L26.9901639,193.81519 L0,193.81519 L0,133.488608 Z" id="Rectangle-25" fill="#3776FF" fill-rule="nonzero"></path>
                            <polygon id="Path-25" fill="#3776FF" fill-rule="nonzero" points="0.376439809 135.679755 2.19405199 133.864549 8.99672131 140.658212 8.99672131 192.531646 6.42622951 192.531646 6.42622951 141.721535"></polygon>
                            <polygon id="Path-25" fill="#3776FF" fill-rule="nonzero" transform="translate(22.303583, 162.822156) scale(-1, 1) translate(-22.303583, -162.822156) " points="17.9934426 135.303813 19.8110548 133.488608 26.6137241 140.282271 26.6137241 192.155704 24.0432323 192.155704 24.0432323 141.345593"></polygon>
                        </g>
                    </g>
                    <g id="turbo" transform="translate(66.832787, 243.231646) scale(-1, 1) translate(-66.832787, -243.231646) translate(25.704918, 136.055696)">
                        <g id="Group-14" transform="translate(0.000000, 8.984810)" fill="#3776FF" fill-rule="nonzero">
                            <path d="M2.5704918,17.7493989 L2.5704918,71.2800321 L8.99672131,78.2962025 L8.99672131,11.3316773 L2.5704918,17.7493989 Z M8.99672131,7.70126582 L10.8143335,5.88606006 L11.5672131,6.19750013 L11.5672131,8.76458874 L8.99672131,11.3316773 L8.99672131,7.70126582 Z M0,16.6860759 L11.5672131,5.13417722 L11.5672131,80.8632911 L0,69.3113924 L0,16.6860759 Z" id="Rectangle-22"></path>
                            <path d="M14.1377049,91.1316456 L20.5639344,91.1316456 L20.5639344,83.4303797 L12.852459,83.4303797 L14.1377049,91.1316456 Z M23.1344262,80.8632911 L23.1344262,93.6987342 L14.1377049,93.6987342 L11.5672131,80.8632911 L23.1344262,80.8632911 Z" id="Rectangle-24"></path>
                            <polygon id="Path-19" points="11.1907733 13.7430459 9.37316112 11.9278402 20.9403742 0.375941423 22.7579864 2.19114718"></polygon>
                            <polygon id="Path-19" points="11.1907733 22.727856 9.37316112 20.9126503 20.9403742 9.36075155 22.7579864 11.1759573"></polygon>
                            <polygon id="Path-19" points="11.1907733 31.7126662 9.37316112 29.8974604 20.9403742 18.3455617 22.7579864 20.1607674"></polygon>
                            <polygon id="Path-19" points="11.1907733 40.6974763 9.37316112 38.8822705 20.9403742 27.3303718 22.7579864 29.1455776"></polygon>
                            <polygon id="Path-19" points="11.1907733 49.6822864 9.37316112 47.8670807 20.9403742 36.3151819 22.7579864 38.1303877"></polygon>
                            <polygon id="Path-19" points="11.1907733 58.6670966 9.37316112 56.8518908 20.9403742 45.2999921 22.7579864 47.1151978"></polygon>
                            <polygon id="Path-19" points="11.1907733 67.6519067 9.37316112 65.8367009 20.9403742 54.2848022 22.7579864 56.1000079"></polygon>
                            <polygon id="Path-19" points="11.1907733 76.6367168 9.37316112 74.821511 20.9403742 63.2696123 22.7579864 65.0848181"></polygon>
                            <path d="M16.7664968,92.4151745 L19.3369886,92.4151745 L19.3369886,202.858223 C19.3369886,204.031295 17.891232,204.589664 17.1009144,203.721822 L12.640347,198.823706 L12.5281687,194.88513 L16.7664968,199.539207 L16.7664968,92.4151745 Z" id="Path-20"></path>
                        </g>
                        <g id="Group-14" transform="translate(59.763934, 91.131646) scale(-1, 1) translate(-59.763934, -91.131646) translate(37.272131, 8.984810)" fill="#3776FF" fill-rule="nonzero">
                            <path d="M24.4196721,17.7493989 L24.4196721,87.501234 L30.8459016,93.9189556 L30.8459016,11.3316773 L24.4196721,17.7493989 Z M30.8459016,7.70126582 L32.6635138,5.88606006 L33.4163934,6.19750013 L33.4163934,8.76458874 L30.8459016,11.3316773 L30.8459016,7.70126582 Z M21.8491803,16.6860759 L33.4163934,5.13417722 L33.4163934,100.116456 L21.8491803,88.564557 L21.8491803,16.6860759 Z" id="Rectangle-22"></path>
                            <path d="M15.4229508,35.9050144 L15.4229508,57.7594937 L21.8491803,64.1429891 L21.8491803,29.521519 L15.4229508,35.9050144 Z M21.8491803,26.0987342 L23.6667925,24.3873418 L24.4196721,24.6809703 L24.4196721,27.1012446 L21.8491803,29.521519 L21.8491803,26.0987342 Z M12.852459,34.6556962 L24.4196721,23.1037975 L24.4196721,70.5607106 L12.852459,59.0088119 L12.852459,34.6556962 Z" id="Rectangle-22"></path>
                            <path d="M33.4163934,83.4303797 L33.4163934,91.1316456 L42.4131148,91.1316456 L42.4131148,83.4303797 L33.4163934,83.4303797 Z M44.9836066,80.8632911 L44.9836066,93.6987342 L30.8459016,93.6987342 L30.8459016,80.8632911 L44.9836066,80.8632911 Z" id="Rectangle-24"></path>
                            <polygon id="Path-19" points="33.0399536 13.7430459 31.2223414 11.9278402 42.7895546 0.375941423 44.6071667 2.19114718"></polygon>
                            <polygon id="Path-19" points="33.0399536 22.727856 31.2223414 20.9126503 42.7895546 9.36075155 44.6071667 11.1759573"></polygon>
                            <polygon id="Path-19" points="33.0399536 31.7126662 31.2223414 29.8974604 42.7895546 18.3455617 44.6071667 20.1607674"></polygon>
                            <polygon id="Path-19" points="33.0399536 40.6974763 31.2223414 38.8822705 42.7895546 27.3303718 44.6071667 29.1455776"></polygon>
                            <polygon id="Path-19" points="33.0399536 49.6822864 31.2223414 47.8670807 42.7895546 36.3151819 44.6071667 38.1303877"></polygon>
                            <polygon id="Path-19" points="33.0399536 58.6670966 31.2223414 56.8518908 42.7895546 45.2999921 44.6071667 47.1151978"></polygon>
                            <polygon id="Path-19" points="33.0399536 67.6519067 31.2223414 65.8367009 42.7895546 54.2848022 44.6071667 56.1000079"></polygon>
                            <polygon id="Path-19" points="33.0399536 76.6367168 31.2223414 74.821511 42.7895546 63.2696123 44.6071667 65.0848181"></polygon>
                            <path d="M16.9518271,158.705099 L0.050810441,100.473789 C-0.0725358853,100.048808 0.0319970125,99.5903449 0.327427558,99.260595 L22.1766079,74.8732532 L24.0922446,76.5849747 L2.71795466,100.442259 L18.1657229,153.6665 M38.6156771,161.516268 L38.6156771,92.4151745 L41.1861689,92.4151745 L41.1861689,164.293671" id="Path-20"></path>
                            <polygon id="Path-21" points="22.1738215 82.5776393 24.095031 84.2831202 3.53109657 107.386918 1.60988704 105.681437"></polygon>
                            <path d="M34.7016393,92.4151899 L37.2721311,92.4151899 L37.2721311,110.430593 C37.2721311,110.756231 37.1481954,111.069697 36.9254289,111.307492 L18.9319862,130.514874 C18.5121501,130.963035 17.8333813,131.051685 17.3122637,130.726418 L7.03029644,124.308697 L8.39265438,122.13181 L17.7775891,127.989628 L34.7016393,109.923786 L34.7016393,92.4151899 Z M18.6746216,128.549531 L17.054899,128.761075 L17.7775891,127.989628 L18.6746216,128.549531 Z" id="Path-22"></path>
                            <polygon id="Path-23" points="16.7576479 129.990591 19.2292373 129.285358 24.9405345 149.248433 22.290867 149.331218"></polygon>
                        </g>
                        <g id="Group-15" transform="translate(16.708197, 0.000000)">
                            <path d="M4.8557377,5.54877886 L4.8557377,106.817722 L22.1344262,106.817722 L22.1344262,5.54877886 L17.579617,1 L9.4105469,1 L4.8557377,5.54877886 Z" id="Rectangle-23" stroke="#3776FF" stroke-width="2"></path>
                            <path d="M1.2852459,115.518987 L25.704918,115.518987" id="Path-24" stroke="#3776FF" stroke-width="2"></path>
                            <path d="M1.2852459,121.936709 L25.704918,121.936709" id="Path-24" stroke="#3776FF" stroke-width="2"></path>
                            <path d="M1.2852459,128.35443 L25.704918,128.35443" id="Path-24" stroke="#3776FF" stroke-width="2"></path>
                            <path d="M1.2852459,192.531646 L10.2819672,192.531646" id="Path-24" stroke="#3776FF" stroke-width="2"></path>
                            <path d="M7.71147541,141.189873 L19.2786885,141.189873" id="Path-24" stroke="#3776FF" stroke-width="2"></path>
                            <path d="M7.71147541,147.607595 L19.2786885,147.607595" id="Path-24" stroke="#3776FF" stroke-width="2"></path>
                            <path d="M7.71147541,154.025316 L19.2786885,154.025316" id="Path-24" stroke="#3776FF" stroke-width="2"></path>
                            <path d="M7.71147541,160.443038 L19.2786885,160.443038" id="Path-24" stroke="#3776FF" stroke-width="2"></path>
                            <path d="M7.71147541,166.860759 L19.2786885,166.860759" id="Path-24" stroke="#3776FF" stroke-width="2"></path>
                            <path d="M7.71147541,173.278481 L19.2786885,173.278481" id="Path-24" stroke="#3776FF" stroke-width="2"></path>
                            <path d="M7.71147541,179.696203 L12.852459,179.696203" id="Path-24" stroke="#3776FF" stroke-width="2"></path>
                            <polygon id="Path-25" fill="#3776FF" fill-rule="nonzero" points="0.376439809 135.679755 2.19405199 133.864549 8.99672131 140.658212 8.99672131 192.531646 6.42622951 192.531646 6.42622951 141.721535"></polygon>
                            <polygon id="Path-25" fill="#3776FF" fill-rule="nonzero" transform="translate(22.303583, 162.822156) scale(-1, 1) translate(-22.303583, -162.822156) " points="17.9934426 135.303813 19.8110548 133.488608 26.6137241 140.282271 26.6137241 192.155704 24.0432323 192.155704 24.0432323 141.345593"></polygon>
                        </g>
                    </g>
                    <g id="turbo" transform="translate(275.042623, 136.055696)">
                        <g id="Group-14" transform="translate(0.000000, 8.984810)" fill="#3776FF" fill-rule="nonzero">
                            <path d="M2.5704918,17.7493989 L2.5704918,71.2800321 L8.99672131,78.2962025 L8.99672131,11.3316773 L2.5704918,17.7493989 Z M8.99672131,7.70126582 L10.8143335,5.88606006 L11.5672131,6.19750013 L11.5672131,8.76458874 L8.99672131,11.3316773 L8.99672131,7.70126582 Z M0,16.6860759 L11.5672131,5.13417722 L11.5672131,80.8632911 L0,69.3113924 L0,16.6860759 Z" id="Rectangle-22"></path>
                            <path d="M14.1377049,91.1316456 L20.5639344,91.1316456 L20.5639344,83.4303797 L12.852459,83.4303797 L14.1377049,91.1316456 Z M23.1344262,80.8632911 L23.1344262,93.6987342 L14.1377049,93.6987342 L11.5672131,80.8632911 L23.1344262,80.8632911 Z" id="Rectangle-24"></path>
                            <polygon id="Path-19" points="11.1907733 13.7430459 9.37316112 11.9278402 20.9403742 0.375941423 22.7579864 2.19114718"></polygon>
                            <polygon id="Path-19" points="11.1907733 22.727856 9.37316112 20.9126503 20.9403742 9.36075155 22.7579864 11.1759573"></polygon>
                            <polygon id="Path-19" points="11.1907733 31.7126662 9.37316112 29.8974604 20.9403742 18.3455617 22.7579864 20.1607674"></polygon>
                            <polygon id="Path-19" points="11.1907733 40.6974763 9.37316112 38.8822705 20.9403742 27.3303718 22.7579864 29.1455776"></polygon>
                            <polygon id="Path-19" points="11.1907733 49.6822864 9.37316112 47.8670807 20.9403742 36.3151819 22.7579864 38.1303877"></polygon>
                            <polygon id="Path-19" points="11.1907733 58.6670966 9.37316112 56.8518908 20.9403742 45.2999921 22.7579864 47.1151978"></polygon>
                            <polygon id="Path-19" points="11.1907733 67.6519067 9.37316112 65.8367009 20.9403742 54.2848022 22.7579864 56.1000079"></polygon>
                            <polygon id="Path-19" points="11.1907733 76.6367168 9.37316112 74.821511 20.9403742 63.2696123 22.7579864 65.0848181"></polygon>
                            <path d="M16.7664968,92.4151745 L19.3369886,92.4151745 L19.3369886,202.858223 C19.3369886,204.031295 17.891232,204.589664 17.1009144,203.721822 L12.640347,198.823706 L12.5281687,194.88513 L16.7664968,199.539207 L16.7664968,92.4151745 Z" id="Path-20"></path>
                        </g>
                        <g id="Group-14" transform="translate(59.763934, 91.131646) scale(-1, 1) translate(-59.763934, -91.131646) translate(37.272131, 8.984810)" fill="#3776FF" fill-rule="nonzero">
                            <path d="M24.4196721,17.7493989 L24.4196721,87.501234 L30.8459016,93.9189556 L30.8459016,11.3316773 L24.4196721,17.7493989 Z M30.8459016,7.70126582 L32.6635138,5.88606006 L33.4163934,6.19750013 L33.4163934,8.76458874 L30.8459016,11.3316773 L30.8459016,7.70126582 Z M21.8491803,16.6860759 L33.4163934,5.13417722 L33.4163934,100.116456 L21.8491803,88.564557 L21.8491803,16.6860759 Z" id="Rectangle-22"></path>
                            <path d="M15.4229508,35.9050144 L15.4229508,57.7594937 L21.8491803,64.1429891 L21.8491803,29.521519 L15.4229508,35.9050144 Z M21.8491803,26.0987342 L23.6667925,24.3873418 L24.4196721,24.6809703 L24.4196721,27.1012446 L21.8491803,29.521519 L21.8491803,26.0987342 Z M12.852459,34.6556962 L24.4196721,23.1037975 L24.4196721,70.5607106 L12.852459,59.0088119 L12.852459,34.6556962 Z" id="Rectangle-22"></path>
                            <path d="M33.4163934,83.4303797 L33.4163934,91.1316456 L42.4131148,91.1316456 L42.4131148,83.4303797 L33.4163934,83.4303797 Z M44.9836066,80.8632911 L44.9836066,93.6987342 L30.8459016,93.6987342 L30.8459016,80.8632911 L44.9836066,80.8632911 Z" id="Rectangle-24"></path>
                            <polygon id="Path-19" points="33.0399536 13.7430459 31.2223414 11.9278402 42.7895546 0.375941423 44.6071667 2.19114718"></polygon>
                            <polygon id="Path-19" points="33.0399536 22.727856 31.2223414 20.9126503 42.7895546 9.36075155 44.6071667 11.1759573"></polygon>
                            <polygon id="Path-19" points="33.0399536 31.7126662 31.2223414 29.8974604 42.7895546 18.3455617 44.6071667 20.1607674"></polygon>
                            <polygon id="Path-19" points="33.0399536 40.6974763 31.2223414 38.8822705 42.7895546 27.3303718 44.6071667 29.1455776"></polygon>
                            <polygon id="Path-19" points="33.0399536 49.6822864 31.2223414 47.8670807 42.7895546 36.3151819 44.6071667 38.1303877"></polygon>
                            <polygon id="Path-19" points="33.0399536 58.6670966 31.2223414 56.8518908 42.7895546 45.2999921 44.6071667 47.1151978"></polygon>
                            <polygon id="Path-19" points="33.0399536 67.6519067 31.2223414 65.8367009 42.7895546 54.2848022 44.6071667 56.1000079"></polygon>
                            <polygon id="Path-19" points="33.0399536 76.6367168 31.2223414 74.821511 42.7895546 63.2696123 44.6071667 65.0848181"></polygon>
                            <path d="M16.9518271,158.705099 L0.050810441,100.473789 C-0.0725358853,100.048808 0.0319970125,99.5903449 0.327427558,99.260595 L22.1766079,74.8732532 L24.0922446,76.5849747 L2.71795466,100.442259 L18.1657229,153.6665 M38.6156771,161.516268 L38.6156771,92.4151745 L41.1861689,92.4151745 L41.1861689,164.293671" id="Path-20"></path>
                            <polygon id="Path-21" points="22.1738215 82.5776393 24.095031 84.2831202 3.53109657 107.386918 1.60988704 105.681437"></polygon>
                            <path d="M34.7016393,92.4151899 L37.2721311,92.4151899 L37.2721311,110.430593 C37.2721311,110.756231 37.1481954,111.069697 36.9254289,111.307492 L18.9319862,130.514874 C18.5121501,130.963035 17.8333813,131.051685 17.3122637,130.726418 L7.03029644,124.308697 L8.39265438,122.13181 L17.7775891,127.989628 L34.7016393,109.923786 L34.7016393,92.4151899 Z M18.6746216,128.549531 L17.054899,128.761075 L17.7775891,127.989628 L18.6746216,128.549531 Z" id="Path-22"></path>
                            <polygon id="Path-23" points="16.7576479 129.990591 19.2292373 129.285358 24.9405345 149.248433 22.290867 149.331218"></polygon>
                        </g>
                        <g id="Group-15" transform="translate(16.708197, 0.000000)">
                            <path d="M4.8557377,5.54877886 L4.8557377,106.817722 L22.1344262,106.817722 L22.1344262,5.54877886 L17.579617,1 L9.4105469,1 L4.8557377,5.54877886 Z" id="Rectangle-23" stroke="#3776FF" stroke-width="2"></path>
                            <path d="M1.2852459,115.518987 L25.704918,115.518987" id="Path-24" stroke="#3776FF" stroke-width="2"></path>
                            <path d="M1.2852459,121.936709 L25.704918,121.936709" id="Path-24" stroke="#3776FF" stroke-width="2"></path>
                            <path d="M1.2852459,128.35443 L25.704918,128.35443" id="Path-24" stroke="#3776FF" stroke-width="2"></path>
                            <path d="M1.2852459,192.531646 L10.2819672,192.531646" id="Path-24" stroke="#3776FF" stroke-width="2"></path>
                            <path d="M7.71147541,141.189873 L19.2786885,141.189873" id="Path-24" stroke="#3776FF" stroke-width="2"></path>
                            <path d="M7.71147541,147.607595 L19.2786885,147.607595" id="Path-24" stroke="#3776FF" stroke-width="2"></path>
                            <path d="M7.71147541,154.025316 L19.2786885,154.025316" id="Path-24" stroke="#3776FF" stroke-width="2"></path>
                            <path d="M7.71147541,160.443038 L19.2786885,160.443038" id="Path-24" stroke="#3776FF" stroke-width="2"></path>
                            <path d="M7.71147541,166.860759 L19.2786885,166.860759" id="Path-24" stroke="#3776FF" stroke-width="2"></path>
                            <path d="M7.71147541,173.278481 L19.2786885,173.278481" id="Path-24" stroke="#3776FF" stroke-width="2"></path>
                            <path d="M7.71147541,179.696203 L12.852459,179.696203" id="Path-24" stroke="#3776FF" stroke-width="2"></path>
                            <polygon id="Path-25" fill="#3776FF" fill-rule="nonzero" points="0.376439809 135.679755 2.19405199 133.864549 8.99672131 140.658212 8.99672131 192.531646 6.42622951 192.531646 6.42622951 141.721535"></polygon>
                            <polygon id="Path-25" fill="#3776FF" fill-rule="nonzero" transform="translate(22.303583, 162.822156) scale(-1, 1) translate(-22.303583, -162.822156) " points="17.9934426 135.303813 19.8110548 133.488608 26.6137241 140.282271 26.6137241 192.155704 24.0432323 192.155704 24.0432323 141.345593"></polygon>
                        </g>
                    </g>
                    <polygon id="Path-18" fill="#3776FF" fill-rule="nonzero" points="144.291753 422.098171 142.474141 423.913376 118.242623 399.71394 118.242623 377.362025 120.813115 377.362025 120.813115 398.650617"></polygon>
                    <polygon id="Path-18" fill="#3776FF" fill-rule="nonzero" transform="translate(250.795057, 400.637701) scale(-1, 1) translate(-250.795057, -400.637701) " points="263.819622 422.098171 262.00201 423.913376 237.770492 399.71394 237.770492 377.362025 240.340984 379.929114 240.340984 398.650617"></polygon>
                </g>
                <g id="Group" transform="translate(92.537705, 351.691139)" stroke="#3776FF">
                    <path d="M12.852459,0 L0,29.521519" id="Path-2" stroke-width="2"></path>
                    <path d="M23.1344262,11.5518987 L10.2819672,41.0734177" id="Path-2" stroke-width="2"></path>
                </g>
                <g id="Group" transform="translate(294.321311, 372.869620) scale(-1, 1) translate(-294.321311, -372.869620) translate(282.754098, 351.691139)" stroke="#3776FF">
                    <path d="M12.852459,0 L0,30.8050633" id="Path-2" stroke-width="2"></path>
                    <path d="M23.1344262,11.5518987 L10.2819672,42.356962" id="Path-2" stroke-width="2"></path>
                </g>
            </g>
            <path d="M1917.13192,701.673934 C2047.47742,605.323697 2132,450.532501 2132,276 C2132,-16.1586326 1895.15863,-253 1603,-253 C1310.84137,-253 1074,-16.1586326 1074,276 C1074,446.511734 1154.67308,598.18126 1279.93307,694.922395 M1315.03316,719.82633 C1372.87463,757.432467 1438.52639,784.03809 1509.02282,796.677567" id="Oval" stroke="#3776FF" stroke-width="2"></path>
            <circle id="Oval-14" stroke="#3776FF" stroke-width="2" cx="1227" cy="180" r="39"></circle>
            <circle id="Oval-14" stroke="#3776FF" stroke-width="2" cx="185.5" cy="898.5" r="30.5"></circle>
            <circle id="Oval-14" stroke="#3776FF" stroke-width="2" cx="384" cy="539" r="70"></circle>
            <circle id="Oval-14" stroke="#3776FF" stroke-width="2" cx="479.5" cy="580.5" r="12.5"></circle>
            <path d="M500.547326,545.127601 C516.322233,542.710176 525.526383,539.800341 525.526383,536.669196 C525.526383,531.144508 496.87187,526.308804 454.028222,523.651253 M315.053739,522.92963 C265.060961,525.36122 230.472701,530.599379 230.472701,536.669196 C230.472701,545.05699 296.522717,551.85664 377.999542,551.85664 C381.898799,551.85664 385.762724,551.841067 389.585768,551.810491 C422.660024,551.545974 452.674549,550.158625 476.036525,548.018316" id="Oval-14" stroke="#3776FF" stroke-width="2" transform="translate(377.999542, 537.393135) rotate(18.000000) translate(-377.999542, -537.393135) "></path>
            <path d="M1442.19809,523.683355 C1496.53366,526.051832 1552.58344,527.290558 1609.8784,527.290558 C2109.03798,527.290558 2513.68677,433.270355 2513.68677,317.290558 C2513.68677,247.449594 2366.95167,185.571691 2141.20486,147.392388 M1119.88859,140.799951 C870.881361,178.198786 706.070029,243.272658 706.070029,317.290558 C706.070029,412.231004 977.224076,492.456385 1349.40967,518.438717" id="Oval-14" stroke="#3776FF" stroke-width="2" transform="translate(1609.878399, 334.045254) rotate(-28.000000) translate(-1609.878399, -334.045254) "></path>
            <path d="M1452.03164,537.255331 C1472.71462,538.123762 1493.6124,538.857716 1514.70577,539.452932 M1529.77269,539.853615 C1568.77861,540.8277 1608.43205,541.328036 1648.61298,541.328036 C2228.12705,541.328036 2697.91602,437.252125 2697.91602,308.867983 C2697.91602,202.364043 2374.61178,112.588794 1933.56511,85.0818993 M1118.6992,108.185845 C807.966055,148.542575 599.309938,223.307045 599.309938,308.867983 C599.309938,413.726347 912.700709,502.368971 1343.3023,531.334625" id="Oval-14" stroke="#3776FF" stroke-width="2" transform="translate(1648.612979, 313.204968) rotate(-28.000000) translate(-1648.612979, -313.204968) "></path>
            <circle id="Oval-14" stroke="#3776FF" stroke-width="2" cx="2006.5" cy="468.5" r="27.5"></circle>
            <circle id="Oval-14" stroke="#3776FF" stroke-width="2" cx="1237.5" cy="506.5" r="10.5"></circle>
            <path d="M1272.59645,688.24728 C1295.8175,677.873768 1312,654.576696 1312,627.5 C1312,590.773064 1282.22694,561 1245.5,561 C1218.35809,561 1195.01403,577.260541 1184.67799,600.571457" id="Oval-14" stroke="#3776FF" stroke-width="2"></path>
            <circle id="Oval-14" stroke="#3776FF" stroke-width="2" cx="1311.5" cy="298.5" r="12.5"></circle>
            <circle id="Oval-14" stroke="#3776FF" stroke-width="2" cx="1603" cy="0" r="49"></circle>
            <g id="Group-4" transform="translate(827.331349, 354.632688) rotate(-34.000000) translate(-827.331349, -354.632688) translate(721.331349, 321.632688)" stroke="#3776FF" stroke-width="2">
                <circle id="Oval-14" cx="33" cy="33" r="33"></circle>
                <g id="Group-3" transform="translate(41.000000, 0.000000)">
                    <g id="Group-2">
                        <path d="M0,1 L31.3333333,1 M40,1 L105.333333,1" id="Path-11"></path>
                        <path d="M113.333333,1 L120,1" id="Path-11"></path>
                    </g>
                    <g id="Group" transform="translate(21.000000, 16.000000)">
                        <path d="M64.3018868,1 L71,1" id="Path-11"></path>
                        <path d="M0,1 L57.2420329,1" id="Path-11"></path>
                    </g>
                    <g id="Group" transform="translate(25.000000, 32.000000)">
                        <path d="M139.363636,1 L146,1" id="Path-11"></path>
                        <path d="M0,1 L30.5272727,1 M39.1545455,1 L132.447991,1" id="Path-11"></path>
                    </g>
                    <g id="Group" transform="translate(21.000000, 48.000000)">
                        <path d="M94.3552632,1 L101,1" id="Path-11"></path>
                        <path d="M0,1 L85.8097724,1" id="Path-11"></path>
                    </g>
                    <g id="Group" transform="translate(0.000000, 64.000000)">
                        <path d="M58.29,1 L66.33,1" id="Path-11"></path>
                        <path d="M0,1 L50.92,1" id="Path-11"></path>
                    </g>
                </g>
            </g>
            <path d="M133.090909,374.090909 L133.090909,368.409091 C133.090909,366.526302 134.617211,365 136.5,365 C138.382789,365 139.909091,366.526302 139.909091,368.409091 L139.909091,374.090909 L145.590909,374.090909 C147.473698,374.090909 149,375.617211 149,377.5 C149,379.382789 147.473698,380.909091 145.590909,380.909091 L139.909091,380.909091 L139.909091,386.590909 C139.909091,388.473698 138.382789,390 136.5,390 C134.617211,390 133.090909,388.473698 133.090909,386.590909 L133.090909,380.909091 L127.409091,380.909091 C125.526302,380.909091 124,379.382789 124,377.5 C124,375.617211 125.526302,374.090909 127.409091,374.090909 L133.090909,374.090909 Z" id="Combined-Shape" fill="#3776FF"></path>
            <path d="M359.181818,302.181818 L359.181818,298.318182 C359.181818,297.037885 360.219704,296 361.5,296 C362.780296,296 363.818182,297.037885 363.818182,298.318182 L363.818182,302.181818 L367.681818,302.181818 C368.962115,302.181818 370,303.219704 370,304.5 C370,305.780296 368.962115,306.818182 367.681818,306.818182 L363.818182,306.818182 L363.818182,310.681818 C363.818182,311.962115 362.780296,313 361.5,313 C360.219704,313 359.181818,311.962115 359.181818,310.681818 L359.181818,306.818182 L355.318182,306.818182 C354.037885,306.818182 353,305.780296 353,304.5 C353,303.219704 354.037885,302.181818 355.318182,302.181818 L359.181818,302.181818 Z" id="Combined-Shape" fill="#3776FF"></path>
            <path d="M486.181818,430.181818 L486.181818,426.318182 C486.181818,425.037885 487.219704,424 488.5,424 C489.780296,424 490.818182,425.037885 490.818182,426.318182 L490.818182,430.181818 L494.681818,430.181818 C495.962115,430.181818 497,431.219704 497,432.5 C497,433.780296 495.962115,434.818182 494.681818,434.818182 L490.818182,434.818182 L490.818182,438.681818 C490.818182,439.962115 489.780296,441 488.5,441 C487.219704,441 486.181818,439.962115 486.181818,438.681818 L486.181818,434.818182 L482.318182,434.818182 C481.037885,434.818182 480,433.780296 480,432.5 C480,431.219704 481.037885,430.181818 482.318182,430.181818 L486.181818,430.181818 Z" id="Combined-Shape" fill="#3776FF"></path>
            <circle id="Oval-5" fill="#3776FF" cx="186" cy="223" r="4"></circle>
            <circle id="Oval-5" fill="#3776FF" cx="570" cy="272" r="4"></circle>
        </g>
    </g>
</svg>