<?xml version="1.0" encoding="UTF-8" standalone="no"?>
<svg width="25px" height="19px" viewBox="0 0 25 19" version="1.1" xmlns="http://www.w3.org/2000/svg" xmlns:xlink="http://www.w3.org/1999/xlink">
    <!-- Generator: Sketch 48.2 (47327) - http://www.bohemiancoding.com/sketch -->
    <title>“</title>
    <desc>Created with Sketch.</desc>
    <defs></defs>
    <g id="6.6.3-MUJI---process" stroke="none" stroke-width="1" fill="none" fill-rule="evenodd" transform="translate(-465.000000, -267.000000)">
        <g id="Group" transform="translate(461.000000, 251.000000)" fill="#7F0019">
            <path d="M19.15625,27.46875 C19.15625,24.3020675 19.9218673,21.8229256 21.453125,20.03125 C22.9843827,18.2395744 25.1354028,17.0625028 27.90625,16.5 L27.90625,19.75 C25.8020728,20.3958366 24.3854203,21.5624916 23.65625,23.25 C23.2395813,24.1458378 23.0729162,25.0104125 23.15625,25.84375 L28.0625,25.84375 L28.0625,34.0625 L19.15625,34.0625 L19.15625,27.46875 Z M4.34375,27.46875 C4.34375,24.3437344 5.08853422,21.8750091 6.578125,20.0625 C8.06771578,18.2499909 10.2395691,17.0625028 13.09375,16.5 L13.09375,19.75 C10.9687394,20.41667 9.54167031,21.5624919 8.8125,23.1875 C8.43749812,24.0416709 8.28124969,24.9270788 8.34375,25.84375 L13.25,25.84375 L13.25,34.0625 L4.34375,34.0625 L4.34375,27.46875 Z" id="“"></path>
        </g>
    </g>
</svg>