<?xml version="1.0" encoding="UTF-8" standalone="no"?>
<svg width="520px" height="461px" viewBox="0 0 520 461" version="1.1" xmlns="http://www.w3.org/2000/svg" xmlns:xlink="http://www.w3.org/1999/xlink">
    <!-- Generator: Sketch 48.2 (47327) - http://www.bohemiancoding.com/sketch -->
    <title>Group 2</title>
    <desc>Created with Sketch.</desc>
    <defs></defs>
    <g id="5.2.-Aerohive---project-background" stroke="none" stroke-width="1" fill="none" fill-rule="evenodd" transform="translate(-600.000000, -243.000000)">
        <g id="Group-2" transform="translate(600.000000, 243.000000)">
            <g id="Group" transform="translate(82.000000, 252.000000)">
                <polyline id="Fill-46" fill="#FBFCFC" points="35.3517126 41.5025803 0 20.942505 35.3517126 0.382429652 70.7034252 20.942505 35.3517126 41.5025803"></polyline>
                <polyline id="Fill-47" fill="#C9DDE6" points="35.3517126 147.228342 0 126.668267 0 21.0323471 35.3517126 41.5924225 35.3517126 147.228342"></polyline>
                <polygon id="Fill-48" fill="#A5C7D8" points="35.1144528 41.5924225 70.4661654 21.0323471 70.4661654 126.668267 35.1144528 147.228342"></polygon>
            </g>
            <g id="Group" transform="translate(174.000000, 198.000000)">
                <polygon id="Fill-46" fill="#FBFCFC" points="0 21.0600753 35.3517126 0.5 70.7034252 21.0600753 35.3517126 41.6201507"></polygon>
                <polyline id="Fill-47" fill="#C9DDE6" points="35.3517126 147.228342 0 126.668267 0 21.0323471 35.3517126 41.5924225 35.3517126 147.228342"></polyline>
                <polygon id="Fill-48" fill="#A5C7D8" points="35.3499756 41.5924225 70.7016882 21.0323471 70.7016882 126.668267 35.3499756 147.228342"></polygon>
            </g>
            <polyline id="Fill-49" fill="#FBFCFC" points="267 260 291.645472 246 378 272.184924 331 297.700012"></polyline>
            <polygon id="Fill-50" fill="#C9DDE6" points="267 333.166988 267 260 331 297.700012 331 371"></polygon>
            <polyline id="Fill-51" fill="#A5C7D8" points="331 371 331 297.585509 378 272 378 345.414491"></polyline>
            <polygon id="Fill-52" fill="#FBFCFC" points="0 251.999042 52.0009588 222 104 251.999042 52.0009588 282"></polygon>
            <polygon id="Fill-53" fill="#C9DDE6" points="0 406.860351 0 252 52 282 52 437"></polygon>
            <polygon id="Fill-54" fill="#A5C7D8" points="52 282 104 252 104 406.860351 52 437"></polygon>
            <polyline id="Fill-58" fill="#FBFCFC" points="376.50953 293 341 272.5 376.50953 252 412 272.5 376.50953 293"></polyline>
            <polygon id="Fill-59" fill="#C9DDE6" points="341 377.471856 341 272 377 292.528144 377 398"></polygon>
            <polygon id="Fill-60" fill="#A5C7D8" points="376 292.528144 412 272 412 377.471856 376 398"></polygon>
            <polygon id="Fill-61" fill="#FBFCFC" points="394 255.587396 429.682433 235 520 285.414518 484.317567 306"></polygon>
            <polygon id="Fill-62" fill="#C9DDE6" points="394 410.032918 394 255.5 484.199951 305.965165 484.199951 460.5"></polygon>
            <polyline id="Fill-63" fill="#A5C7D8" points="484 460.299988 484 305.890251 520 285.299988 520 439.70781 484 460.299988"></polyline>
            <path d="M349.888609,96.1242545 L346.153094,94.0128142 C345.635869,93.7191321 345.463461,93.0645856 345.750808,92.5482425 C346.038155,92.0280604 346.689476,91.8476282 347.206701,92.1393909 L350.942215,94.2527506 C351.459441,94.5445133 351.651005,95.2009793 351.363658,95.7173224 C351.152937,96.0666698 350.788964,96.2643774 350.42499,96.2643774 C350.233426,96.2643774 350.061017,96.2202291 349.888609,96.1242545 Z M341,100.21661 L341,95.9169495 C341,95.3238267 341.478912,94.8420344 342.072763,94.8420344 C342.666614,94.8420344 343.145526,95.3238267 343.145526,95.9169495 L343.145526,100.21661 C343.145526,100.811652 342.666614,101.291525 342.072763,101.291525 C341.478912,101.291525 341,100.811652 341,100.21661 Z M362.972488,103.520054 L359.236973,101.406694 C358.719748,101.114932 358.528183,100.458466 358.834687,99.9440419 C359.122034,99.4238598 359.773355,99.2415082 360.29058,99.5351903 L364.026094,101.646631 C364.543319,101.940313 364.734884,102.594859 364.428381,103.111202 C364.236816,103.462469 363.872842,103.658257 363.508869,103.658257 C363.317304,103.658257 363.144896,103.616029 362.972488,103.520054 Z M376.056367,110.915853 L372.320852,108.802494 C371.803627,108.510731 371.612062,107.854265 371.89941,107.337922 C372.205913,106.819659 372.857234,106.635388 373.374459,106.93099 L377.109973,109.04243 C377.627198,109.334193 377.799607,109.990659 377.512259,110.507002 C377.320695,110.858269 376.956721,111.054057 376.573592,111.054057 C376.401183,111.054057 376.228775,111.009908 376.056367,110.915853 Z M341,115.26542 L341,110.96576 C341,110.370718 341.478912,109.890845 342.072763,109.890845 C342.666614,109.890845 343.145526,110.370718 343.145526,110.96576 L343.145526,115.26542 C343.145526,115.860463 342.666614,116.340335 342.072763,116.340335 C341.478912,116.340335 341,115.860463 341,115.26542 Z M389.140246,118.309733 L385.404731,116.198293 C384.887506,115.904611 384.695941,115.250064 384.983288,114.733721 C385.270636,114.213539 385.941113,114.031188 386.458338,114.32487 L390.193852,116.43823 C390.711077,116.729992 390.883486,117.384539 390.596138,117.902801 C390.404574,118.252149 390.0406,118.449856 389.657471,118.449856 C389.485062,118.449856 389.293497,118.403788 389.140246,118.309733 Z M402.204968,125.705533 L398.469454,123.592173 C397.952228,123.30041 397.77982,122.643944 398.067167,122.127601 C398.354515,121.607419 399.005835,121.426987 399.52306,121.71875 L403.258575,123.832109 C403.7758,124.123872 403.967365,124.780338 403.680017,125.296681 C403.469296,125.647948 403.105323,125.843736 402.74135,125.843736 C402.549785,125.843736 402.377376,125.799588 402.204968,125.705533 Z M341,130.314231 L341,126.014571 C341,125.419529 341.478912,124.939656 342.072763,124.939656 C342.666614,124.939656 343.145526,125.419529 343.145526,126.014571 L343.145526,130.314231 C343.145526,130.907354 342.666614,131.387227 342.072763,131.387227 C341.478912,131.387227 341,130.907354 341,130.314231 Z M415.288847,133.101332 L411.553332,130.987973 C411.036107,130.69621 410.863699,130.039744 411.151046,129.523401 C411.438394,129.003219 412.089714,128.822786 412.606939,129.114549 L416.342454,131.227909 C416.859679,131.519672 417.051243,132.176138 416.74474,132.692481 C416.553175,133.041828 416.189202,133.237616 415.825228,133.237616 C415.633664,133.237616 415.461255,133.195387 415.288847,133.101332 Z M428.372726,140.495212 L424.637211,138.381853 C424.119986,138.09009 423.928421,137.433624 424.234925,136.917281 C424.522272,136.399018 425.173593,136.218586 425.690818,136.510349 L429.426332,138.623708 C429.943558,138.913552 430.115966,139.570018 429.828619,140.086361 C429.637054,140.437628 429.273081,140.633416 428.889951,140.633416 C428.717543,140.633416 428.545134,140.589267 428.372726,140.495212 Z M341,145.361122 L341,141.061462 C341,140.468339 341.478912,139.986547 342.072763,139.986547 C342.666614,139.986547 343.145526,140.468339 343.145526,141.061462 L343.145526,145.361122 C343.145526,145.956165 342.666614,146.436037 342.072763,146.436037 C341.478912,146.436037 341,145.956165 341,145.361122 Z M441.456605,147.891012 L437.72109,145.777652 C437.203865,145.485889 437.0123,144.829423 437.299648,144.315 C437.606151,143.792898 438.257472,143.616305 438.774697,143.906148 L442.510211,146.017588 C443.027436,146.309351 443.199845,146.965817 442.912498,147.48216 C442.720933,147.833427 442.35696,148.029215 441.97383,148.029215 C441.801421,148.029215 441.609857,147.985067 441.456605,147.891012 Z M454.521327,155.286811 L450.785813,153.173451 C450.268588,152.881689 450.096179,152.225223 450.383527,151.70888 C450.670874,151.186778 451.322194,151.008265 451.839419,151.300028 L455.59409,153.413388 C456.092159,153.70515 456.283724,154.361616 455.996376,154.87796 C455.785655,155.229226 455.421682,155.425015 455.057709,155.425015 C454.8853,155.425015 454.693736,155.380866 454.521327,155.286811 Z M341,160.409933 L341,156.110273 C341,155.515231 341.478912,155.035358 342.072763,155.035358 C342.666614,155.035358 343.145526,155.515231 343.145526,156.110273 L343.145526,160.409933 C343.145526,161.004975 342.666614,161.484848 342.072763,161.484848 C341.478912,161.484848 341,161.004975 341,160.409933 Z M467.605206,162.680691 L463.869692,160.569251 C463.352467,160.277488 463.180058,159.621022 463.467405,159.104679 C463.754753,158.582578 464.406073,158.402145 464.923298,158.695827 L468.658813,160.809187 C469.176038,161.10095 469.367603,161.757416 469.080255,162.273759 C468.869534,162.623106 468.505561,162.818895 468.141588,162.818895 C467.950023,162.818895 467.777614,162.776666 467.605206,162.680691 Z M480.689085,170.076491 L476.953571,167.963131 C476.436345,167.671368 476.244781,167.014902 476.551284,166.498559 C476.838632,165.976457 477.489952,165.797945 478.007177,166.091627 L481.742692,168.204987 C482.259917,168.49483 482.451482,169.151296 482.144978,169.667639 C481.953413,170.018906 481.58944,170.214694 481.225467,170.214694 C481.033902,170.214694 480.861493,170.170546 480.689085,170.076491 Z M341,175.458744 L341,171.159084 C341,170.564041 341.478912,170.084169 342.072763,170.084169 C342.666614,170.084169 343.145526,170.564041 343.145526,171.159084 L343.145526,175.458744 C343.145526,176.051867 342.666614,176.533659 342.072763,176.533659 C341.478912,176.533659 341,176.051867 341,175.458744 Z M341,190.505635 L341,186.207894 C341,185.612852 341.478912,185.13106 342.072763,185.13106 C342.666614,185.13106 343.145526,185.612852 343.145526,186.207894 L343.145526,190.505635 C343.145526,191.100677 342.666614,191.58247 342.072763,191.58247 C341.478912,191.58247 341,191.100677 341,190.505635 Z M341,205.554446 L341,201.254786 C341,200.661663 341.478912,200.179871 342.072763,200.179871 C342.666614,200.179871 343.145526,200.661663 343.145526,201.254786 L343.145526,205.554446 C343.145526,206.149488 342.666614,206.629361 342.072763,206.629361 C341.478912,206.629361 341,206.149488 341,205.554446 Z M341,220.603257 L341,216.303596 C341,215.708554 341.478912,215.228681 342.072763,215.228681 C342.666614,215.228681 343.145526,215.708554 343.145526,216.303596 L343.145526,220.603257 C343.145526,221.198299 342.666614,221.678172 342.072763,221.678172 C341.478912,221.678172 341,221.198299 341,220.603257 Z M341,235.652067 L341,231.352407 C341,230.757365 341.478912,230.277492 342.072763,230.277492 C342.666614,230.277492 343.145526,230.757365 343.145526,231.352407 L343.145526,235.652067 C343.145526,236.24519 342.666614,236.726982 342.072763,236.726982 C341.478912,236.726982 341,236.24519 341,235.652067 Z M482.661195,182.153711 L482.661195,177.85405 C482.661195,177.259008 483.140107,176.779135 483.733958,176.779135 C484.308652,176.779135 484.806721,177.259008 484.806721,177.85405 L484.806721,182.153711 C484.806721,182.746833 484.308652,183.228626 483.733958,183.228626 C483.140107,183.228626 482.661195,182.746833 482.661195,182.153711 Z M482.661195,197.202521 L482.661195,192.900942 C482.661195,192.307819 483.140107,191.827946 483.733958,191.827946 C484.308652,191.827946 484.806721,192.307819 484.806721,192.900942 L484.806721,197.202521 C484.806721,197.795644 484.308652,198.275517 483.733958,198.275517 C483.140107,198.275517 482.661195,197.795644 482.661195,197.202521 Z M482.661195,212.249413 L482.661195,207.949752 C482.661195,207.35663 483.140107,206.874837 483.733958,206.874837 C484.308652,206.874837 484.806721,207.35663 484.806721,207.949752 L484.806721,212.249413 C484.806721,212.844455 484.308652,213.324328 483.733958,213.324328 C483.140107,213.324328 482.661195,212.844455 482.661195,212.249413 Z M482.661195,227.298223 L482.661195,222.998563 C482.661195,222.403521 483.140107,221.923648 483.733958,221.923648 C484.308652,221.923648 484.806721,222.403521 484.806721,222.998563 L484.806721,227.298223 C484.806721,227.891346 484.308652,228.373138 483.733958,228.373138 C483.140107,228.373138 482.661195,227.891346 482.661195,227.298223 Z M482.661195,242.347034 L482.661195,238.047374 C482.661195,237.452332 483.140107,236.972459 483.733958,236.972459 C484.308652,236.972459 484.806721,237.452332 484.806721,238.047374 L484.806721,242.347034 C484.806721,242.940157 484.308652,243.421949 483.733958,243.421949 C483.140107,243.421949 482.661195,242.940157 482.661195,242.347034 Z M482.661195,257.393925 L482.661195,253.096185 C482.661195,252.501142 483.140107,252.01935 483.733958,252.01935 C484.308652,252.01935 484.806721,252.501142 484.806721,253.096185 L484.806721,257.393925 C484.806721,257.988968 484.308652,258.47076 483.733958,258.47076 C483.140107,258.47076 482.661195,257.988968 482.661195,257.393925 Z M482.661195,272.442736 L482.661195,268.143076 C482.661195,267.549953 483.140107,267.068161 483.733958,267.068161 C484.308652,267.068161 484.806721,267.549953 484.806721,268.143076 L484.806721,272.442736 C484.806721,273.037778 484.308652,273.517651 483.733958,273.517651 C483.140107,273.517651 482.661195,273.037778 482.661195,272.442736 Z" id="Fill-168" fill="#FBFCFC"></path>
            <path d="M214.841928,94.0757421 C214.456203,94.0757421 214.070479,93.8611375 213.877617,93.4855795 C213.60761,92.9567324 213.819758,92.3129187 214.359772,92.0446629 L218.217017,90.1151378 C218.737745,89.8487981 219.393476,90.0595705 219.663484,90.5922498 C219.933491,91.1210968 219.721342,91.7649105 219.181328,92.0312502 L215.324083,93.9626915 L214.841928,94.0757421 Z M201.341572,100.830038 C200.936561,100.830038 200.570123,100.613518 200.377261,100.239876 C200.107254,99.7091125 200.319402,99.0652988 200.859417,98.7989591 L204.716661,96.869434 C205.237389,96.6069266 205.893121,96.8138667 206.163128,97.3465459 C206.433135,97.875393 206.220986,98.5192067 205.680972,98.7874625 L201.823728,100.715072 L201.341572,100.830038 Z M221.919972,101.968209 C221.322099,101.968209 220.839943,101.487265 220.839943,100.895186 L220.839943,96.6030943 C220.839943,96.0090995 221.322099,95.5300714 221.919972,95.5300714 C222.517844,95.5300714 223,96.0090995 223,96.6030943 L223,100.895186 C223,101.487265 222.517844,101.968209 221.919972,101.968209 Z M187.833502,107.584334 C187.438134,107.584334 187.058196,107.367814 186.869191,106.994172 C186.601112,106.463409 186.813261,105.819595 187.347489,105.553255 L191.206662,103.621814 C191.735105,103.359307 192.386979,103.566247 192.655057,104.098926 C192.923136,104.627773 192.709059,105.273503 192.176759,105.539843 L188.317586,107.469368 L187.833502,107.584334 Z M174.32736,114.336715 C173.931993,114.336715 173.552054,114.12211 173.363049,113.746552 C173.094971,113.217705 173.307119,112.573891 173.841347,112.305635 L177.702449,110.37611 C178.230892,110.113603 178.880837,110.320543 179.150844,110.853222 C179.418923,111.382069 179.204846,112.025883 178.672546,112.294139 L174.811444,114.223664 L174.32736,114.336715 Z M221.919972,116.99053 C221.322099,116.99053 220.839943,116.509586 220.839943,115.917507 L220.839943,111.625415 C220.839943,111.031421 221.322099,110.552393 221.919972,110.552393 C222.517844,110.552393 223,111.031421 223,111.625415 L223,115.917507 C223,116.509586 222.517844,116.99053 221.919972,116.99053 Z M160.823147,121.091011 C160.42778,121.091011 160.047841,120.87449 159.858836,120.500848 C159.590758,119.970085 159.802906,119.326271 160.337134,119.059932 L164.196308,117.130406 C164.72475,116.864067 165.376624,117.072923 165.644703,117.607518 C165.912781,118.136365 165.698704,118.780179 165.166405,119.048435 L161.307231,120.976044 L160.823147,121.091011 Z M147.317006,127.843391 C146.921638,127.843391 146.541699,127.628786 146.352694,127.253228 C146.084616,126.724381 146.296764,126.080567 146.830993,125.812312 L150.690166,123.882786 C151.21668,123.618363 151.868554,123.827219 152.138561,124.359898 C152.40664,124.888745 152.192563,125.534475 151.660263,125.800815 L147.80109,127.73034 L147.317006,127.843391 Z M221.919972,132.010935 C221.322099,132.010935 220.839943,131.531907 220.839943,130.937912 L220.839943,126.645821 C220.839943,126.053742 221.322099,125.572798 221.919972,125.572798 C222.517844,125.572798 223,126.053742 223,126.645821 L223,130.937912 C223,131.531907 222.517844,132.010935 221.919972,132.010935 Z M133.810864,134.597687 C133.415496,134.597687 133.035558,134.383082 132.846553,134.00944 C132.578474,133.478677 132.790623,132.834864 133.324851,132.566608 L137.184024,130.637083 C137.712467,130.372659 138.362412,130.581515 138.63242,131.112279 C138.900498,131.643042 138.686421,132.286855 138.154121,132.555111 L134.294948,134.484636 L133.810864,134.597687 Z M121.080028,141.827179 C120.484084,141.827179 120,141.346235 120,140.754156 L120,139.230847 L123.679811,137.389463 C124.206325,137.125039 124.858199,137.333895 125.128207,137.866575 C125.396285,138.395422 125.182208,139.041152 124.649908,139.307491 L122.160057,140.552964 L122.160057,140.754156 C122.160057,141.346235 121.677901,141.827179 121.080028,141.827179 Z M221.919972,147.033256 C221.322099,147.033256 220.839943,146.554228 220.839943,145.960233 L220.839943,141.668142 C220.839943,141.076063 221.322099,140.595119 221.919972,140.595119 C222.517844,140.595119 223,141.076063 223,141.668142 L223,145.960233 C223,146.554228 222.517844,147.033256 221.919972,147.033256 Z M121.080028,156.847584 C120.484084,156.847584 120,156.368556 120,155.774561 L120,151.484385 C120,150.890391 120.484084,150.411363 121.080028,150.411363 C121.677901,150.411363 122.160057,150.890391 122.160057,151.484385 L122.160057,155.774561 C122.160057,156.368556 121.677901,156.847584 121.080028,156.847584 Z M221.919972,162.055578 C221.322099,162.055578 220.839943,161.574633 220.839943,160.982555 L220.839943,156.690463 C220.839943,156.096468 221.322099,155.61744 221.919972,155.61744 C222.517844,155.61744 223,156.096468 223,156.690463 L223,160.982555 C223,161.574633 222.517844,162.055578 221.919972,162.055578 Z M121.080028,171.869905 C120.484084,171.869905 120,171.390877 120,170.796882 L120,166.504791 C120,165.912712 120.484084,165.431768 121.080028,165.431768 C121.677901,165.431768 122.160057,165.912712 122.160057,166.504791 L122.160057,170.796882 C122.160057,171.390877 121.677901,171.869905 121.080028,171.869905 Z M221.919972,177.075983 C221.322099,177.075983 220.839943,176.596955 220.839943,176.00296 L220.839943,171.712784 C220.839943,171.118789 221.322099,170.639761 221.919972,170.639761 C222.517844,170.639761 223,171.118789 223,171.712784 L223,176.00296 C223,176.596955 222.517844,177.075983 221.919972,177.075983 Z M121.080028,186.892226 C120.484084,186.892226 120,186.411282 120,185.819203 L120,181.527112 C120,180.933117 120.484084,180.454089 121.080028,180.454089 C121.677901,180.454089 122.160057,180.933117 122.160057,181.527112 L122.160057,185.819203 C122.160057,186.411282 121.677901,186.892226 121.080028,186.892226 Z M221.919972,192.098304 C221.322099,192.098304 220.839943,191.619276 220.839943,191.025281 L220.839943,186.733189 C220.839943,186.14111 221.322099,185.660166 221.919972,185.660166 C222.517844,185.660166 223,186.14111 223,186.733189 L223,191.025281 C223,191.619276 222.517844,192.098304 221.919972,192.098304 Z M121.080028,201.914548 C120.484084,201.914548 120,201.433603 120,200.841525 L120,196.549433 C120,195.955438 120.484084,195.47641 121.080028,195.47641 C121.677901,195.47641 122.160057,195.955438 122.160057,196.549433 L122.160057,200.841525 C122.160057,201.433603 121.677901,201.914548 121.080028,201.914548 Z M121.080028,216.934953 C120.484084,216.934953 120,216.455925 120,215.86193 L120,211.569838 C120,210.977759 120.484084,210.496815 121.080028,210.496815 C121.677901,210.496815 122.160057,210.977759 122.160057,211.569838 L122.160057,215.86193 C122.160057,216.455925 121.677901,216.934953 121.080028,216.934953 Z M121.080028,231.957274 C120.484084,231.957274 120,231.478246 120,230.884251 L120,226.592159 C120,226.00008 120.484084,225.519136 121.080028,225.519136 C121.677901,225.519136 122.160057,226.00008 122.160057,226.592159 L122.160057,230.884251 C122.160057,231.478246 121.677901,231.957274 121.080028,231.957274 Z M121.080028,246.979595 C120.484084,246.979595 120,246.498651 120,245.906572 L120,241.61448 C120,241.020485 120.484084,240.541457 121.080028,240.541457 C121.677901,240.541457 122.160057,241.020485 122.160057,241.61448 L122.160057,245.906572 C122.160057,246.498651 121.677901,246.979595 121.080028,246.979595 Z M121.080028,262 C120.484084,262 120,261.520972 120,260.928893 L120,256.636801 C120,256.042807 120.484084,255.563778 121.080028,255.563778 C121.677901,255.563778 122.160057,256.042807 122.160057,256.636801 L122.160057,260.928893 C122.160057,261.520972 121.677901,262 121.080028,262 Z" id="Fill-169" fill="#FBFCFC"></path>
            <path d="M290.5,62.3596716 C289.669643,62.3596716 289,61.8822188 289,61.2901773 L289,57.0694943 C289,56.4793626 289.669643,56 290.5,56 C291.330357,56 292,56.4793626 292,57.0694943 L292,61.2901773 C292,61.8822188 291.330357,62.3596716 290.5,62.3596716 Z M290.5,77.3325922 C289.669643,77.3325922 289,76.8532296 289,76.2630979 L289,71.9851206 C289,71.3930791 289.669643,70.9156262 290.5,70.9156262 C291.330357,70.9156262 292,71.3930791 292,71.9851206 L292,76.2630979 C292,76.8532296 291.330357,77.3325922 290.5,77.3325922 Z M290.5,92.303603 C289.669643,92.303603 289,91.8261502 289,91.2341087 L289,86.9561313 C289,86.3659997 289.669643,85.8885468 290.5,85.8885468 C291.330357,85.8885468 292,86.3659997 292,86.9561313 L292,91.2341087 C292,91.8261502 291.330357,92.303603 290.5,92.303603 Z M290.5,107.276524 C289.669643,107.276524 289,106.799071 289,106.207029 L289,101.929052 C289,101.33892 289.669643,100.859558 290.5,100.859558 C291.330357,100.859558 292,101.33892 292,101.929052 L292,106.207029 C292,106.799071 291.330357,107.276524 290.5,107.276524 Z M290.5,122.249444 C289.669643,122.249444 289,121.770082 289,121.17995 L289,116.901973 C289,116.309931 289.669643,115.832478 290.5,115.832478 C291.330357,115.832478 292,116.309931 292,116.901973 L292,121.17995 C292,121.770082 291.330357,122.249444 290.5,122.249444 Z M290.5,137.222365 C289.669643,137.222365 289,136.743002 289,136.15287 L289,131.874893 C289,131.282852 289.669643,130.805399 290.5,130.805399 C291.330357,130.805399 292,131.282852 292,131.874893 L292,136.15287 C292,136.743002 291.330357,137.222365 290.5,137.222365 Z M290.5,152.193376 C289.669643,152.193376 289,151.715923 289,151.123881 L289,146.845904 C289,146.255772 289.669643,145.77641 290.5,145.77641 C291.330357,145.77641 292,146.255772 292,146.845904 L292,151.123881 C292,151.715923 291.330357,152.193376 290.5,152.193376 Z M290.5,167.166296 C289.669643,167.166296 289,166.688843 289,166.096802 L289,161.818824 C289,161.228693 289.669643,160.74933 290.5,160.74933 C291.330357,160.74933 292,161.228693 292,161.818824 L292,166.096802 C292,166.688843 291.330357,167.166296 290.5,167.166296 Z M290.5,182.139217 C289.669643,182.139217 289,181.659854 289,181.069722 L289,176.791745 C289,176.199704 289.669643,175.722251 290.5,175.722251 C291.330357,175.722251 292,176.199704 292,176.791745 L292,181.069722 C292,181.659854 291.330357,182.139217 290.5,182.139217 Z M290.5,197.110227 C289.669643,197.110227 289,196.632775 289,196.040733 L289,191.764666 C289,191.172624 289.669643,190.695171 290.5,190.695171 C291.330357,190.695171 292,191.172624 292,191.764666 L292,196.040733 C292,196.632775 291.330357,197.110227 290.5,197.110227 Z M290.5,212.083148 C289.669643,212.083148 289,211.605695 289,211.013654 L289,206.735676 C289,206.145545 289.669643,205.666182 290.5,205.666182 C291.330357,205.666182 292,206.145545 292,206.735676 L292,211.013654 C292,211.605695 291.330357,212.083148 290.5,212.083148 Z M290.5,227.056069 C289.669643,227.056069 289,226.576706 289,225.986574 L289,221.708597 C289,221.118465 289.669643,220.639103 290.5,220.639103 C291.330357,220.639103 292,221.118465 292,221.708597 L292,225.986574 C292,226.576706 291.330357,227.056069 290.5,227.056069 Z M290.5,242.028989 C289.669643,242.028989 289,241.549627 289,240.959495 L289,236.681518 C289,236.089476 289.669643,235.612023 290.5,235.612023 C291.330357,235.612023 292,236.089476 292,236.681518 L292,240.959495 C292,241.549627 291.330357,242.028989 290.5,242.028989 Z M290.5,257 C289.669643,257 289,256.522547 289,255.930506 L289,251.652528 C289,251.062397 289.669643,250.583034 290.5,250.583034 C291.330357,250.583034 292,251.062397 292,251.652528 L292,255.930506 C292,256.522547 291.330357,257 290.5,257 Z" id="Fill-170" fill="#FBFCFC"></path>
            <path d="M116.457792,77.0750424 C116.064085,77.0750424 115.681956,76.8585142 115.494752,76.482943 C115.22649,75.9540776 115.438784,75.3083251 115.973377,75.0419762 L119.835188,73.1142999 C120.365922,72.8498671 121.018242,73.0587307 121.286504,73.5914285 C121.554765,74.120294 121.340542,74.7660464 120.805948,75.0323953 L116.944137,76.9600717 L116.457792,77.0750424 Z M102.940489,83.8219096 C102.546781,83.8219096 102.164653,83.6053813 101.975519,83.2317264 C101.707257,82.7009447 101.921481,82.0551923 102.456074,81.7907596 L106.317885,79.8611671 C106.846689,79.5967343 107.502868,79.807514 107.76727,80.3382957 C108.035532,80.8671612 107.823239,81.5129136 107.288645,81.7792625 L103.426834,83.7069388 L102.940489,83.8219096 Z M122.919233,85.9833598 C122.322882,85.9833598 121.838467,85.504315 121.838467,84.9102994 L121.838467,80.6180579 C121.838467,80.0259585 122.322882,79.5449975 122.919233,79.5449975 C123.517515,79.5449975 124,80.0259585 124,80.6180579 L124,84.9102994 C124,85.504315 123.517515,85.9833598 122.919233,85.9833598 Z M89.4212558,90.5687768 C89.025618,90.5687768 88.6434898,90.3522485 88.4562855,89.9785936 C88.1880238,89.4497281 88.4022472,88.8039757 88.9349108,88.5376268 L92.7986517,86.6099504 C93.3274554,86.3436015 93.9797753,86.5543812 94.248037,87.0851629 C94.5162987,87.6159445 94.3040053,88.2597808 93.7694118,88.5261297 L89.9076008,90.4557222 L89.4212558,90.5687768 Z M75.9039524,97.315644 C75.5083146,97.315644 75.1261864,97.1010319 74.9389822,96.7254607 C74.6707204,96.1965953 74.8849438,95.5508429 75.4176074,95.2844939 L79.2813483,93.3568176 C79.810152,93.0923849 80.4624719,93.3012484 80.7307336,93.8339462 C80.9989954,94.3628117 80.7867019,95.0085641 80.2521084,95.274913 L76.3883675,97.2025894 L75.9039524,97.315644 Z M122.919233,101.006205 C122.322882,101.006205 121.838467,100.525244 121.838467,99.9331448 L121.838467,95.6409033 C121.838467,95.0468877 122.322882,94.5678429 122.919233,94.5678429 C123.517515,94.5678429 124,95.0468877 124,95.6409033 L124,99.9331448 C124,100.525244 123.517515,101.006205 122.919233,101.006205 Z M62.386649,104.064427 C61.9910112,104.064427 61.608883,103.847899 61.4216788,103.472328 C61.1534171,102.943462 61.3657105,102.29771 61.900304,102.031361 L65.7640449,100.103685 C66.2928486,99.839252 66.9451685,100.048116 67.2134303,100.580813 C67.481692,101.109679 67.2674686,101.755431 66.734805,102.02178 L62.8710641,103.949457 L62.386649,104.064427 Z M52.0807667,112.777294 C51.4844151,112.777294 51,112.29825 51,111.704234 L51,107.47331 L52.2448116,106.850552 C52.7716854,106.586119 53.4240053,106.794983 53.694197,107.327681 C53.9624587,107.856546 53.7482353,108.502298 53.2155717,108.768647 L53.1615334,108.795474 L53.1615334,111.704234 C53.1615334,112.29825 52.6790482,112.777294 52.0807667,112.777294 Z M122.919233,116.029051 C122.322882,116.029051 121.838467,115.54809 121.838467,114.95599 L121.838467,110.663749 C121.838467,110.069733 122.322882,109.590688 122.919233,109.590688 C123.517515,109.590688 124,110.069733 124,110.663749 L124,114.95599 C124,115.54809 123.517515,116.029051 122.919233,116.029051 Z M52.0807667,127.80014 C51.4844151,127.80014 51,127.321095 51,126.727079 L51,122.434838 C51,121.842739 51.4844151,121.361778 52.0807667,121.361778 C52.6790482,121.361778 53.1615334,121.842739 53.1615334,122.434838 L53.1615334,126.727079 C53.1615334,127.321095 52.6790482,127.80014 52.0807667,127.80014 Z M122.919233,131.04998 C122.322882,131.04998 121.838467,130.570935 121.838467,129.976919 L121.838467,125.684678 C121.838467,125.092579 122.322882,124.611618 122.919233,124.611618 C123.517515,124.611618 124,125.092579 124,125.684678 L124,129.976919 C124,130.570935 123.517515,131.04998 122.919233,131.04998 Z M122.919233,141.960705 C122.322882,141.960705 121.838467,141.479744 121.838467,140.887644 C121.838467,140.293629 122.322882,139.724523 122.919233,139.724523 C123.517515,139.724523 124,140.115424 124,140.707523 L124,140.887644 C124,141.479744 123.517515,141.960705 122.919233,141.960705 Z M52.0807667,142.822985 C51.4844151,142.822985 51,142.342024 51,141.749925 L51,137.457683 C51,136.863668 51.4844151,136.384623 52.0807667,136.384623 C52.6790482,136.384623 53.1615334,136.863668 53.1615334,137.457683 L53.1615334,141.749925 C53.1615334,142.342024 52.6790482,142.822985 52.0807667,142.822985 Z M52.0807667,157.843914 C51.4844151,157.843914 51,157.36487 51,156.770854 L51,152.480529 C51,151.886513 51.4844151,151.407468 52.0807667,151.407468 C52.6790482,151.407468 53.1615334,151.886513 53.1615334,152.480529 L53.1615334,156.770854 C53.1615334,157.36487 52.6790482,157.843914 52.0807667,157.843914 Z M52.0807667,172.86676 C51.4844151,172.86676 51,172.387715 51,171.7937 L51,167.501458 C51,166.909359 51.4844151,166.428398 52.0807667,166.428398 C52.6790482,166.428398 53.1615334,166.909359 53.1615334,167.501458 L53.1615334,171.7937 C53.1615334,172.387715 52.6790482,172.86676 52.0807667,172.86676 Z M52.0807667,187.889605 C51.4844151,187.889605 51,187.408644 51,186.816545 L51,182.524303 C51,181.930288 51.4844151,181.451243 52.0807667,181.451243 C52.6790482,181.451243 53.1615334,181.930288 53.1615334,182.524303 L53.1615334,186.816545 C53.1615334,187.408644 52.6790482,187.889605 52.0807667,187.889605 Z M52.0807667,202.912451 C51.4844151,202.912451 51,202.43149 51,201.83939 L51,197.547149 C51,196.953133 51.4844151,196.474088 52.0807667,196.474088 C52.6790482,196.474088 53.1615334,196.953133 53.1615334,197.547149 L53.1615334,201.83939 C53.1615334,202.43149 52.6790482,202.912451 52.0807667,202.912451 Z M52.0807667,217.93338 C51.4844151,217.93338 51,217.454335 51,216.86032 L51,212.568078 C51,211.975979 51.4844151,211.495018 52.0807667,211.495018 C52.6790482,211.495018 53.1615334,211.975979 53.1615334,212.568078 L53.1615334,216.86032 C53.1615334,217.454335 52.6790482,217.93338 52.0807667,217.93338 Z M52.0807667,232.956225 C51.4844151,232.956225 51,232.477181 51,231.883165 L51,227.590923 C51,226.998824 51.4844151,226.517863 52.0807667,226.517863 C52.6790482,226.517863 53.1615334,226.998824 53.1615334,227.590923 L53.1615334,231.883165 C53.1615334,232.477181 52.6790482,232.956225 52.0807667,232.956225 Z M52.0807667,247.979071 C51.4844151,247.979071 51,247.49811 51,246.90601 L51,242.613769 C51,242.019753 51.4844151,241.540708 52.0807667,241.540708 C52.6790482,241.540708 53.1615334,242.019753 53.1615334,242.613769 L53.1615334,246.90601 C53.1615334,247.49811 52.6790482,247.979071 52.0807667,247.979071 Z M52.0807667,263 C51.4844151,263 51,262.520955 51,261.928856 L51,257.636614 C51,257.042599 51.4844151,256.563554 52.0807667,256.563554 C52.6790482,256.563554 53.1615334,257.042599 53.1615334,257.636614 L53.1615334,261.928856 C53.1615334,262.520955 52.6790482,263 52.0807667,263 Z" id="Fill-171" fill="#FBFCFC"></path>
            <path d="M466.5,92.4140564 C465.669643,92.4140564 465,91.9349111 465,91.345047 L465,87.0690094 C465,86.4772363 465.669643,86 466.5,86 C467.330357,86 468,86.4772363 468,87.0690094 L468,91.345047 C468,91.9349111 467.330357,92.4140564 466.5,92.4140564 Z M466.5,107.378279 C465.669643,107.378279 465,106.901043 465,106.30927 L465,102.033232 C465,101.443368 465.669643,100.964223 466.5,100.964223 C467.330357,100.964223 468,101.443368 468,102.033232 L468,106.30927 C468,106.901043 467.330357,107.378279 466.5,107.378279 Z M466.5,122.344411 C465.669643,122.344411 465,121.867174 465,121.275401 L465,116.999364 C465,116.4095 465.669643,115.930354 466.5,115.930354 C467.330357,115.930354 468,116.4095 468,116.999364 L468,121.275401 C468,121.867174 467.330357,122.344411 466.5,122.344411 Z M466.5,137.310542 C465.669643,137.310542 465,136.831397 465,136.241533 L465,131.965495 C465,131.373722 465.669643,130.896486 466.5,130.896486 C467.330357,130.896486 468,131.373722 468,131.965495 L468,136.241533 C468,136.831397 467.330357,137.310542 466.5,137.310542 Z M466.5,152.274765 C465.669643,152.274765 465,151.797529 465,151.205756 L465,146.931627 C465,146.339854 465.669643,145.862618 466.5,145.862618 C467.330357,145.862618 468,146.339854 468,146.931627 L468,151.205756 C468,151.797529 467.330357,152.274765 466.5,152.274765 Z M466.5,167.240897 C465.669643,167.240897 465,166.76366 465,166.171887 L465,161.89585 C465,161.305985 465.669643,160.82684 466.5,160.82684 C467.330357,160.82684 468,161.305985 468,161.89585 L468,166.171887 C468,166.76366 467.330357,167.240897 466.5,167.240897 Z M466.5,182.207028 C465.669643,182.207028 465,181.727883 465,181.138019 L465,176.861981 C465,176.272117 465.669643,175.792972 466.5,175.792972 C467.330357,175.792972 468,176.272117 468,176.861981 L468,181.138019 C468,181.727883 467.330357,182.207028 466.5,182.207028 Z M466.5,197.17316 C465.669643,197.17316 465,196.694015 465,196.10415 L465,191.828113 C465,191.23634 465.669643,190.759103 466.5,190.759103 C467.330357,190.759103 468,191.23634 468,191.828113 L468,196.10415 C468,196.694015 467.330357,197.17316 466.5,197.17316 Z M466.5,212.137382 C465.669643,212.137382 465,211.660146 465,211.068373 L465,206.792335 C465,206.202471 465.669643,205.723326 466.5,205.723326 C467.330357,205.723326 468,206.202471 468,206.792335 L468,211.068373 C468,211.660146 467.330357,212.137382 466.5,212.137382 Z M466.5,227.103514 C465.669643,227.103514 465,226.626278 465,226.034505 L465,221.758467 C465,221.168603 465.669643,220.689458 466.5,220.689458 C467.330357,220.689458 468,221.168603 468,221.758467 L468,226.034505 C468,226.626278 467.330357,227.103514 466.5,227.103514 Z M466.5,242.069646 C465.669643,242.069646 465,241.5905 465,241.000636 L465,236.724599 C465,236.132826 465.669643,235.655589 466.5,235.655589 C467.330357,235.655589 468,236.132826 468,236.724599 L468,241.000636 C468,241.5905 467.330357,242.069646 466.5,242.069646 Z M466.5,257.033868 C465.669643,257.033868 465,256.556632 465,255.964859 L465,251.69073 C465,251.098957 465.669643,250.621721 466.5,250.621721 C467.330357,250.621721 468,251.098957 468,251.69073 L468,255.964859 C468,256.556632 467.330357,257.033868 466.5,257.033868 Z M466.5,272 C465.669643,272 465,271.522764 465,270.930991 L465,266.654953 C465,266.065089 465.669643,265.585944 466.5,265.585944 C467.330357,265.585944 468,266.065089 468,266.654953 L468,270.930991 C468,271.522764 467.330357,272 466.5,272 Z" id="Fill-172" fill="#FBFCFC"></path>
            <path d="M321.38785,22 C320.81291,22 320.276299,21.6879574 319.969664,21.1334357 C314.162766,10.1582799 303.066418,3.33905502 290.992671,3.33905502 C278.938088,3.33905502 267.822575,10.1562923 262.015678,21.1294607 C261.594055,21.936399 260.616656,22.2305538 259.830904,21.7893215 C259.045153,21.3461017 258.776847,20.3304725 259.19847,19.5235342 C265.580308,7.48107327 277.749878,0 290.992671,0 C304.235463,0 316.424198,7.48107327 322.806036,19.5275093 C323.227659,20.3344476 322.940189,21.3500768 322.154437,21.7932966 C321.924461,21.9344114 321.656155,22 321.38785,22" id="Fill-173" fill="#FBFCFC"></path>
            <path d="M312.374255,26 C311.794466,26 311.25333,25.6984013 310.94411,25.1677404 C306.846937,17.7900262 299.01979,13.2068719 290.496897,13.2068719 C281.99333,13.2068719 274.146857,17.7881174 270.049684,25.1658315 C269.624506,25.9427344 268.638865,26.2290623 267.846488,25.7995705 C267.05411,25.3738964 266.764215,24.3984729 267.20872,23.6234789 C271.866355,15.2188022 280.7951,10 290.496897,10 C300.198694,10 309.127439,15.2188022 313.8044,23.6253877 C314.229579,24.4003818 313.939684,25.3758053 313.147307,25.8014794 C312.915391,25.935099 312.644823,26 312.374255,26" id="Fill-174" fill="#FBFCFC"></path>
            <path d="M305.34399,30 C304.753409,30 304.202199,29.69482 303.887222,29.1578578 C301.505208,24.8949956 296.957727,22.2449517 291.996839,22.2449517 C287.055637,22.2449517 282.488471,24.8930641 280.106457,29.1539947 C279.653677,29.9401229 278.649688,30.2259877 277.862246,29.795259 C277.055117,29.3625988 276.759826,28.3755926 277.212606,27.591396 C280.165515,22.2932397 285.835101,19 291.996839,19 C298.158577,19 303.828164,22.2932397 306.800759,27.595259 C307.233853,28.3813872 306.938562,29.3664618 306.131433,29.799122 C305.8952,29.9343284 305.619595,30 305.34399,30" id="Fill-175" fill="#FBFCFC"></path>
            <path d="M296,35 C296,37.7614571 293.764706,40 291,40 C288.235294,40 286,37.7614571 286,35 C286,32.2385429 288.235294,30 291,30 C293.764706,30 296,32.2385429 296,35" id="Fill-176" fill="#FBFCFC"></path>
            <g id="Group-5" transform="translate(438.000000, 26.000000)" fill="#FBFCFC">
                <path d="M54.5977014,40.7199075 C54.0942725,40.4341566 53.6102061,39.8569016 53.3584916,39.1760858 C48.2661137,25.6767558 38.5460615,13.5409751 27.9934152,7.50376947 C17.4407688,1.46848158 7.72071665,2.49066411 2.64770136,10.1714166 C2.26044829,10.7371649 1.40849152,10.5319613 0.73079864,9.71498235 C0.0531057578,8.89800343 -0.198608741,7.77609577 0.16928168,7.21034746 C5.74572597,-1.21834344 16.4145482,-2.34025111 27.9934152,4.28188079 C39.5722821,10.9059305 50.2411043,24.2230703 55.8175486,39.0380049 C56.2048017,40.0314205 55.9530872,40.8675774 55.2753943,40.907851 C55.0430425,40.9193577 54.8106906,40.8503172 54.5977014,40.7199075" id="Fill-177"></path>
                <path d="M46.4363954,37.9940427 C45.9660792,37.7123642 45.495763,37.139491 45.2511986,36.4638432 C41.7896713,27.0866133 35.167619,18.6571935 28,14.4662741 C20.832381,10.2753546 14.2103287,10.9852606 10.7676141,16.3219264 C10.3913611,16.8833802 9.5636046,16.6873472 8.90516191,15.8670537 C8.24671921,15.0562764 8.00215479,13.9428849 8.3595951,13.3814311 C12.2914386,7.30440758 19.816498,6.49363025 28,11.2688423 C36.183502,16.0440544 43.7085614,25.6439626 47.6404049,36.3268104 C47.9978452,37.3126852 47.7532808,38.1424949 47.0948381,38.1805596 C46.887899,38.191979 46.6621472,38.1253658 46.4363954,37.9940427" id="Fill-178"></path>
                <path d="M39.6202286,39.3607143 C39.1357825,39.0816746 38.6886015,38.5179771 38.4277459,37.8550238 C36.4713291,32.5869799 32.7448208,27.8489241 28.6829268,25.4948781 C24.6210328,23.1389595 20.8945246,23.5397278 18.9381077,26.5361268 C18.5654569,27.0867151 17.7456251,26.8863309 17.0934861,26.0885397 C16.4413472,25.2888757 16.1991242,24.1933174 16.5531424,23.6408563 C18.9940053,19.9159578 23.6335081,19.4196793 28.6829268,22.3486592 C33.7323455,25.2776392 38.3718483,31.1674359 40.8127112,37.7183131 C41.1667295,38.6883973 40.9245065,39.5067887 40.2723675,39.5442437 C40.0674096,39.5554802 39.8438191,39.4880612 39.6202286,39.3607143" id="Fill-179"></path>
                <path d="M34.1463415,41.9839216 C34.1463415,44.6774104 32.3107825,45.7700881 30.0487805,44.4233437 C27.7867785,43.0765993 25.9512195,39.8004764 25.9512195,37.1069875 C25.9512195,34.4134987 27.7867785,33.320821 30.0487805,34.6675654 C32.3107825,36.0143098 34.1463415,39.2904327 34.1463415,41.9839216" id="Fill-180"></path>
            </g>
            <path d="M61.8626955,81.1454344 L61.8702883,81.1339079 L61.875983,81.1454344 L61.8626955,81.1454344 Z M65.1238362,72.2604307 C64.8561873,72.4179594 64.594233,72.6023832 64.3398716,72.8117812 C64.1044925,68.537374 60.9990057,66.848743 57.1627045,69.0906455 C56.344572,69.5670739 55.5700985,70.2144785 54.8373859,70.9368052 C53.4023321,66.9409549 49.4825093,65.7556474 44.8584471,68.4566885 C39.3042574,71.7013958 34.7618187,79.3645915 34.3309229,85.9750342 C33.8449788,86.1056678 33.3438489,86.2900917 32.8180421,86.5974648 C29.6043569,88.4743618 27,93.0407734 27,96.7964885 C27,100.552204 29.6043569,102.0737 32.8180421,100.194882 L65.1238362,81.3183318 C67.2650276,80.0677074 69,77.0266348 69,74.5253862 C69,72.0241376 67.2650276,71.0098064 65.1238362,72.2604307 Z" id="Fill-181" fill="#FBFCFC"></path>
            <path d="M221.5,56.7674269 C218.734807,58.3412436 216.491713,57.064661 216.491713,53.9189331 C216.491713,50.7712997 218.734807,46.9453629 221.5,45.3715462 C224.265193,43.7977295 226.508287,45.074312 226.508287,48.22004 C226.508287,51.3676734 224.265193,55.1936102 221.5,56.7674269 Z M221.5,39.413526 C215.698895,42.7135871 211,50.7370035 211,57.3371257 C211,63.9353425 221.5,76 221.5,76 C221.5,76 232,51.9869111 232,45.3886943 C232,38.7885721 227.301105,36.1134649 221.5,39.413526 Z" id="Fill-183" fill="#FBFCFC"></path>
            <path d="M340.001684,49.2960043 C340.001684,45.8179376 342.460438,44.4070782 345.5,46.1470739 C348.520202,47.8870697 350.978956,52.1157983 350.978956,55.593865 C350.978956,59.0719317 348.520202,60.4808663 345.5,58.7427953 C342.460438,57.0027996 340.001684,52.774071 340.001684,49.2960043 Z M334,46.1643969 C334,53.4592906 345.5,80 345.5,80 C345.5,80 357,66.6651653 357,59.3721964 C357,52.0773028 351.850168,43.2079439 345.5,39.5624219 C339.149832,35.914975 334,38.871428 334,46.1643969 Z" id="Fill-184" fill="#FBFCFC"></path>
            <path d="M119.5,32.2243004 C116.208586,34.0869192 113.540134,32.5762764 113.540134,28.8510387 C113.540134,25.1238985 116.208586,20.59197 119.5,18.7293511 C122.793355,16.8648297 125.461807,18.3754726 125.461807,22.1026128 C125.461807,25.829753 122.793355,30.3616816 119.5,32.2243004 Z M119.5,11.6727084 C112.596957,15.5805931 107,25.0839445 107,32.8978112 C107,40.7135804 119.5,55 119.5,55 C119.5,55 132,26.5641461 132,18.7483769 C132,10.9345102 126.403043,7.76672635 119.5,11.6727084 Z" id="Fill-185" fill="#FBFCFC"></path>
        </g>
    </g>
</svg>