<?xml version="1.0" encoding="UTF-8" standalone="no"?>
<svg width="300px" height="295px" viewBox="0 0 300 295" version="1.1" xmlns="http://www.w3.org/2000/svg" xmlns:xlink="http://www.w3.org/1999/xlink">
    <!-- Generator: Sketch 48.2 (47327) - http://www.bohemiancoding.com/sketch -->
    <title>Artboard 2</title>
    <desc>Created with Sketch.</desc>
    <defs></defs>
    <g id="Page-1" stroke="none" stroke-width="1" fill="none" fill-rule="evenodd">
        <g id="Artboard-2">
            <rect id="Rectangle-5" stroke="#3C3340" stroke-width="16" x="8" y="5" width="284" height="284"></rect>
            <g id="Group" transform="translate(51.000000, 71.000000)" fill="#3C3340">
                <polygon id="YD" points="79.5724638 154 60.4169867 154 60.1678445 101.328993 0 0 21.1201413 0 69.9911661 82.3452158 118.371025 0 139 0 79.3233216 101.328993"></polygon>
                <path d="M150.520325,154 L118,154 L118,63 L150.390244,63 C165.349593,63 177.056911,67.1779053 185.382114,75.6642755 C193.837398,84.0200861 198,94.9870875 198,108.695839 C198,122.404591 193.837398,133.371593 185.512195,141.596844 C177.186992,149.822095 165.479675,154 150.520325,154 Z M133.632184,77.7070707 L133.632184,139.292929 L148.828531,139.292929 C171.492048,139.292929 181.448276,127.394175 181.448276,108.696133 C181.448276,89.4750692 171.623051,77.7070707 148.697528,77.7070707 L133.632184,77.7070707 Z" id="Combined-Shape" transform="translate(158.000000, 108.500000) scale(-1, 1) translate(-158.000000, -108.500000) "></path>
            </g>
        </g>
    </g>
</svg>