<?xml version="1.0" encoding="UTF-8" standalone="no"?>
<svg width="340px" height="538px" viewBox="0 0 340 538" version="1.1" xmlns="http://www.w3.org/2000/svg" xmlns:xlink="http://www.w3.org/1999/xlink">
    <!-- Generator: Sketch 48.2 (47327) - http://www.bohemiancoding.com/sketch -->
    <title>Group</title>
    <desc>Created with Sketch.</desc>
    <defs></defs>
    <g id="6.7.1-MUJI---design-outcome" stroke="none" stroke-width="1" fill="none" fill-rule="evenodd" transform="translate(-791.000000, -168.000000)">
        <g id="Group" transform="translate(791.000000, 168.000000)">
            <rect id="Rectangle" stroke="#FFFFFF" stroke-width="18" x="9" y="9" width="322" height="322" rx="62"></rect>
            <path d="M302.5,164 C299.462434,164 297,161.537566 297,158.5 C297,155.462434 299.462434,153 302.5,153 C305.537566,153 308,155.462434 308,158.5 C308,161.537566 305.537566,164 302.5,164 Z M38.5,164 C35.4624339,164 33,161.537566 33,158.5 C33,155.462434 35.4624339,153 38.5,153 C41.5375661,153 44,155.462434 44,158.5 C44,161.537566 41.5375661,164 38.5,164 Z M302.5,140 C299.462434,140 297,137.537566 297,134.5 C297,131.462434 299.462434,129 302.5,129 C305.537566,129 308,131.462434 308,134.5 C308,137.537566 305.537566,140 302.5,140 Z M38.5,140 C35.4624339,140 33,137.537566 33,134.5 C33,131.462434 35.4624339,129 38.5,129 C41.5375661,129 44,131.462434 44,134.5 C44,137.537566 41.5375661,140 38.5,140 Z M158.5,308 C155.462434,308 153,305.537566 153,302.5 C153,299.462434 155.462434,297 158.5,297 C161.537566,297 164,299.462434 164,302.5 C164,305.537566 161.537566,308 158.5,308 Z M134.5,308 C131.462434,308 129,305.537566 129,302.5 C129,299.462434 131.462434,297 134.5,297 C137.537566,297 140,299.462434 140,302.5 C140,305.537566 137.537566,308 134.5,308 Z M110.5,308 C107.462434,308 105,305.537566 105,302.5 C105,299.462434 107.462434,297 110.5,297 C113.537566,297 116,299.462434 116,302.5 C116,305.537566 113.537566,308 110.5,308 Z M302.5,116 C299.462434,116 297,113.537566 297,110.5 C297,107.462434 299.462434,105 302.5,105 C305.537566,105 308,107.462434 308,110.5 C308,113.537566 305.537566,116 302.5,116 Z M302.5,308 C299.462434,308 297,305.537566 297,302.5 C297,299.462434 299.462434,297 302.5,297 C305.537566,297 308,299.462434 308,302.5 C308,305.537566 305.537566,308 302.5,308 Z M86.5,308 C83.4624339,308 81,305.537566 81,302.5 C81,299.462434 83.4624339,297 86.5,297 C89.5375661,297 92,299.462434 92,302.5 C92,305.537566 89.5375661,308 86.5,308 Z M278.5,308 C275.462434,308 273,305.537566 273,302.5 C273,299.462434 275.462434,297 278.5,297 C281.537566,297 284,299.462434 284,302.5 C284,305.537566 281.537566,308 278.5,308 Z M62.5,308 C59.4624339,308 57,305.537566 57,302.5 C57,299.462434 59.4624339,297 62.5,297 C65.5375661,297 68,299.462434 68,302.5 C68,305.537566 65.5375661,308 62.5,308 Z M254.5,308 C251.462434,308 249,305.537566 249,302.5 C249,299.462434 251.462434,297 254.5,297 C257.537566,297 260,299.462434 260,302.5 C260,305.537566 257.537566,308 254.5,308 Z M38.5,116 C35.4624339,116 33,113.537566 33,110.5 C33,107.462434 35.4624339,105 38.5,105 C41.5375661,105 44,107.462434 44,110.5 C44,113.537566 41.5375661,116 38.5,116 Z M38.5,308 C35.4624339,308 33,305.537566 33,302.5 C33,299.462434 35.4624339,297 38.5,297 C41.5375661,297 44,299.462434 44,302.5 C44,305.537566 41.5375661,308 38.5,308 Z M230.5,308 C227.462434,308 225,305.537566 225,302.5 C225,299.462434 227.462434,297 230.5,297 C233.537566,297 236,299.462434 236,302.5 C236,305.537566 233.537566,308 230.5,308 Z M206.5,308 C203.462434,308 201,305.537566 201,302.5 C201,299.462434 203.462434,297 206.5,297 C209.537566,297 212,299.462434 212,302.5 C212,305.537566 209.537566,308 206.5,308 Z M182.5,308 C179.462434,308 177,305.537566 177,302.5 C177,299.462434 179.462434,297 182.5,297 C185.537566,297 188,299.462434 188,302.5 C188,305.537566 185.537566,308 182.5,308 Z M302.5,92 C299.462434,92 297,89.5375661 297,86.5 C297,83.4624339 299.462434,81 302.5,81 C305.537566,81 308,83.4624339 308,86.5 C308,89.5375661 305.537566,92 302.5,92 Z M302.5,284 C299.462434,284 297,281.537566 297,278.5 C297,275.462434 299.462434,273 302.5,273 C305.537566,273 308,275.462434 308,278.5 C308,281.537566 305.537566,284 302.5,284 Z M86.5,284 C83.4624339,284 81,281.537566 81,278.5 C81,275.462434 83.4624339,273 86.5,273 C89.5375661,273 92,275.462434 92,278.5 C92,281.537566 89.5375661,284 86.5,284 Z M278.5,92 C275.462434,92 273,89.5375661 273,86.5 C273,83.4624339 275.462434,81 278.5,81 C281.537566,81 284,83.4624339 284,86.5 C284,89.5375661 281.537566,92 278.5,92 Z M278.5,284 C275.462434,284 273,281.537566 273,278.5 C273,275.462434 275.462434,273 278.5,273 C281.537566,273 284,275.462434 284,278.5 C284,281.537566 281.537566,284 278.5,284 Z M62.5,92 C59.4624339,92 57,89.5375661 57,86.5 C57,83.4624339 59.4624339,81 62.5,81 C65.5375661,81 68,83.4624339 68,86.5 C68,89.5375661 65.5375661,92 62.5,92 Z M62.5,284 C59.4624339,284 57,281.537566 57,278.5 C57,275.462434 59.4624339,273 62.5,273 C65.5375661,273 68,275.462434 68,278.5 C68,281.537566 65.5375661,284 62.5,284 Z M254.5,284 C251.462434,284 249,281.537566 249,278.5 C249,275.462434 251.462434,273 254.5,273 C257.537566,273 260,275.462434 260,278.5 C260,281.537566 257.537566,284 254.5,284 Z M38.5,92 C35.4624339,92 33,89.5375661 33,86.5 C33,83.4624339 35.4624339,81 38.5,81 C41.5375661,81 44,83.4624339 44,86.5 C44,89.5375661 41.5375661,92 38.5,92 Z M38.5,284 C35.4624339,284 33,281.537566 33,278.5 C33,275.462434 35.4624339,273 38.5,273 C41.5375661,273 44,275.462434 44,278.5 C44,281.537566 41.5375661,284 38.5,284 Z M302.5,68 C299.462434,68 297,65.5375661 297,62.5 C297,59.4624339 299.462434,57 302.5,57 C305.537566,57 308,59.4624339 308,62.5 C308,65.5375661 305.537566,68 302.5,68 Z M302.5,260 C299.462434,260 297,257.537566 297,254.5 C297,251.462434 299.462434,249 302.5,249 C305.537566,249 308,251.462434 308,254.5 C308,257.537566 305.537566,260 302.5,260 Z M86.5,68 C83.4624339,68 81,65.5375661 81,62.5 C81,59.4624339 83.4624339,57 86.5,57 C89.5375661,57 92,59.4624339 92,62.5 C92,65.5375661 89.5375661,68 86.5,68 Z M278.5,68 C275.462434,68 273,65.5375661 273,62.5 C273,59.4624339 275.462434,57 278.5,57 C281.537566,57 284,59.4624339 284,62.5 C284,65.5375661 281.537566,68 278.5,68 Z M278.5,260 C275.462434,260 273,257.537566 273,254.5 C273,251.462434 275.462434,249 278.5,249 C281.537566,249 284,251.462434 284,254.5 C284,257.537566 281.537566,260 278.5,260 Z M62.5,68 C59.4624339,68 57,65.5375661 57,62.5 C57,59.4624339 59.4624339,57 62.5,57 C65.5375661,57 68,59.4624339 68,62.5 C68,65.5375661 65.5375661,68 62.5,68 Z M62.5,260 C59.4624339,260 57,257.537566 57,254.5 C57,251.462434 59.4624339,249 62.5,249 C65.5375661,249 68,251.462434 68,254.5 C68,257.537566 65.5375661,260 62.5,260 Z M254.5,68 C251.462434,68 249,65.5375661 249,62.5 C249,59.4624339 251.462434,57 254.5,57 C257.537566,57 260,59.4624339 260,62.5 C260,65.5375661 257.537566,68 254.5,68 Z M38.5,68 C35.4624339,68 33,65.5375661 33,62.5 C33,59.4624339 35.4624339,57 38.5,57 C41.5375661,57 44,59.4624339 44,62.5 C44,65.5375661 41.5375661,68 38.5,68 Z M38.5,260 C35.4624339,260 33,257.537566 33,254.5 C33,251.462434 35.4624339,249 38.5,249 C41.5375661,249 44,251.462434 44,254.5 C44,257.537566 41.5375661,260 38.5,260 Z M158.5,44 C155.462434,44 153,41.5375661 153,38.5 C153,35.4624339 155.462434,33 158.5,33 C161.537566,33 164,35.4624339 164,38.5 C164,41.5375661 161.537566,44 158.5,44 Z M134.5,44 C131.462434,44 129,41.5375661 129,38.5 C129,35.4624339 131.462434,33 134.5,33 C137.537566,33 140,35.4624339 140,38.5 C140,41.5375661 137.537566,44 134.5,44 Z M110.5,44 C107.462434,44 105,41.5375661 105,38.5 C105,35.4624339 107.462434,33 110.5,33 C113.537566,33 116,35.4624339 116,38.5 C116,41.5375661 113.537566,44 110.5,44 Z M302.5,44 C299.462434,44 297,41.5375661 297,38.5 C297,35.4624339 299.462434,33 302.5,33 C305.537566,33 308,35.4624339 308,38.5 C308,41.5375661 305.537566,44 302.5,44 Z M302.5,236 C299.462434,236 297,233.537566 297,230.5 C297,227.462434 299.462434,225 302.5,225 C305.537566,225 308,227.462434 308,230.5 C308,233.537566 305.537566,236 302.5,236 Z M86.5,44 C83.4624339,44 81,41.5375661 81,38.5 C81,35.4624339 83.4624339,33 86.5,33 C89.5375661,33 92,35.4624339 92,38.5 C92,41.5375661 89.5375661,44 86.5,44 Z M278.5,44 C275.462434,44 273,41.5375661 273,38.5 C273,35.4624339 275.462434,33 278.5,33 C281.537566,33 284,35.4624339 284,38.5 C284,41.5375661 281.537566,44 278.5,44 Z M62.5,44 C59.4624339,44 57,41.5375661 57,38.5 C57,35.4624339 59.4624339,33 62.5,33 C65.5375661,33 68,35.4624339 68,38.5 C68,41.5375661 65.5375661,44 62.5,44 Z M254.5,44 C251.462434,44 249,41.5375661 249,38.5 C249,35.4624339 251.462434,33 254.5,33 C257.537566,33 260,35.4624339 260,38.5 C260,41.5375661 257.537566,44 254.5,44 Z M38.5,44 C35.4624339,44 33,41.5375661 33,38.5 C33,35.4624339 35.4624339,33 38.5,33 C41.5375661,33 44,35.4624339 44,38.5 C44,41.5375661 41.5375661,44 38.5,44 Z M38.5,236 C35.4624339,236 33,233.537566 33,230.5 C33,227.462434 35.4624339,225 38.5,225 C41.5375661,225 44,227.462434 44,230.5 C44,233.537566 41.5375661,236 38.5,236 Z M230.5,44 C227.462434,44 225,41.5375661 225,38.5 C225,35.4624339 227.462434,33 230.5,33 C233.537566,33 236,35.4624339 236,38.5 C236,41.5375661 233.537566,44 230.5,44 Z M206.5,44 C203.462434,44 201,41.5375661 201,38.5 C201,35.4624339 203.462434,33 206.5,33 C209.537566,33 212,35.4624339 212,38.5 C212,41.5375661 209.537566,44 206.5,44 Z M182.5,44 C179.462434,44 177,41.5375661 177,38.5 C177,35.4624339 179.462434,33 182.5,33 C185.537566,33 188,35.4624339 188,38.5 C188,41.5375661 185.537566,44 182.5,44 Z M302.5,212 C299.462434,212 297,209.537566 297,206.5 C297,203.462434 299.462434,201 302.5,201 C305.537566,201 308,203.462434 308,206.5 C308,209.537566 305.537566,212 302.5,212 Z M38.5,212 C35.4624339,212 33,209.537566 33,206.5 C33,203.462434 35.4624339,201 38.5,201 C41.5375661,201 44,203.462434 44,206.5 C44,209.537566 41.5375661,212 38.5,212 Z M302.5,188 C299.462434,188 297,185.537566 297,182.5 C297,179.462434 299.462434,177 302.5,177 C305.537566,177 308,179.462434 308,182.5 C308,185.537566 305.537566,188 302.5,188 Z M38.5,188 C35.4624339,188 33,185.537566 33,182.5 C33,179.462434 35.4624339,177 38.5,177 C41.5375661,177 44,179.462434 44,182.5 C44,185.537566 41.5375661,188 38.5,188 Z" id="Combined-Shape" fill="#FFFFFF"></path>
            <circle id="Oval" stroke="#FFFFFF" stroke-width="8" cx="170" cy="170" r="123"></circle>
            <path d="M170,277 C110.905532,277 63,229.094468 63,170 C63,110.905532 110.905532,63 170,63 C229.094468,63 277,110.905532 277,170 C277,229.094468 229.094468,277 170,277 Z M113.273941,133.320826 L115.902878,133.320826 C115.758271,132.088777 115.192867,131.060639 114.20665,130.236381 C113.220432,129.412123 111.914653,129 110.289274,129 C108.415171,129 106.908392,129.624692 105.768892,130.874093 C104.629391,132.123495 104.059649,133.783555 104.059649,135.854323 C104.059649,137.901954 104.623607,139.51574 105.751539,140.695731 C106.833197,141.869937 108.2214,142.457031 109.916191,142.457031 C110.94579,142.457031 111.813417,142.240124 112.519098,141.806304 C112.929781,141.557581 113.392516,141.129552 113.907315,140.522203 L114.176282,142.118653 L115.946259,142.118653 L115.946259,135.255654 L110.618976,135.255654 L110.618976,137.390038 L113.577614,137.390038 C113.444576,138.228757 113.091741,138.906952 112.519098,139.424644 C111.946456,139.942336 111.211865,140.201178 110.315303,140.201178 C109.401389,140.201178 108.585819,139.874372 107.86857,139.22075 C107.151321,138.567127 106.792702,137.453673 106.792702,135.880352 C106.792702,134.3186 107.123846,133.148749 107.786145,132.370765 C108.448443,131.592781 109.29438,131.203795 110.323979,131.203795 C110.861916,131.203795 111.35068,131.299234 111.790284,131.490115 C112.576944,131.837171 113.071492,132.447402 113.273941,133.320826 Z M101.430713,130.69189 C100.77709,129.806897 99.6665276,129.352839 98.0989911,129.329702 L91.8867188,129.329702 L91.8867188,142.118653 L97.6825259,142.118653 C98.3361481,142.118653 98.9420411,142.060811 99.5002229,141.945126 C100.058405,141.829441 100.54283,141.615426 100.953513,141.303076 C101.317922,141.031215 101.621591,140.695733 101.86453,140.296618 C102.246292,139.695054 102.43717,139.015413 102.43717,138.257674 C102.43717,137.523072 102.270875,136.89838 101.938279,136.383581 C101.605684,135.868781 101.112583,135.492809 100.45896,135.255654 C100.886996,135.035852 101.21091,134.792916 101.430713,134.52684 C101.824043,134.05253 102.020705,133.424946 102.020705,132.64407 C102.020705,131.886331 101.824043,131.235611 101.430713,130.69189 Z M106.65625,177.445312 L100,177.445312 C100.234376,180.632828 101.390615,183.093741 103.46875,184.828125 C105.546885,186.562509 108.203109,187.429688 111.4375,187.429688 C115.453145,187.429688 118.46874,186.195325 120.484375,183.726562 C122.50001,181.2578 123.507812,178.453141 123.507812,175.3125 C123.507812,171.703107 122.460948,168.953134 120.367188,167.0625 C118.273427,165.171866 115.820327,164.226562 113.007812,164.226562 C111.617181,164.226562 110.437505,164.406248 109.46875,164.765625 C108.890622,164.984376 108.085943,165.429684 107.054688,166.101562 L108.273438,158.671875 L122.171875,158.671875 L122.171875,153 L103.445312,153 L101.054688,171.773438 L107.054688,172.054688 C107.58594,171.039057 108.374995,170.343752 109.421875,169.96875 C110.015628,169.765624 110.718746,169.664062 111.53125,169.664062 C113.250009,169.664062 114.515621,170.261713 115.328125,171.457031 C116.140629,172.65235 116.546875,174.117179 116.546875,175.851562 C116.546875,177.617196 116.113286,179.082025 115.246094,180.246094 C114.378902,181.410162 113.117196,181.992188 111.460938,181.992188 C110.02343,181.992188 108.929691,181.59766 108.179688,180.808594 C107.429684,180.019527 106.921876,178.898445 106.65625,177.445312 Z M126.97391,129.329702 L124.665999,139.385601 L122.340735,129.329702 L118.453727,129.329702 L118.453727,142.118653 L120.943842,142.118653 L120.943842,133.468324 C120.943842,133.219601 120.94095,132.871104 120.935165,132.422823 C120.929381,131.974542 120.926489,131.628938 120.926489,131.385998 L123.32984,142.118653 L125.924071,142.118653 L128.344775,131.385998 C128.344775,131.628938 128.341883,131.974542 128.336099,132.422823 C128.330314,132.871104 128.327422,133.219601 128.327422,133.468324 L128.327422,142.118653 L130.817537,142.118653 L130.817537,129.329702 L126.97391,129.329702 Z M170.5,201 C187.344685,201 201,187.344685 201,170.5 C201,153.655315 187.344685,140 170.5,140 C153.655315,140 140,153.655315 140,170.5 C140,187.344685 153.655315,201 170.5,201 Z" id="Combined-Shape" fill="#FFFFFF"></path>
            <path d="M170.5,197 C155.864454,197 144,185.135546 144,170.5 C144,155.864454 155.864454,144 170.5,144 C185.135546,144 197,155.864454 197,170.5 C197,185.135546 185.135546,197 170.5,197 Z M171.5,178 C176.19442,178 180,174.19442 180,169.5 C180,164.80558 176.19442,161 171.5,161 C166.80558,161 163,164.80558 163,169.5 C163,174.19442 166.80558,178 171.5,178 Z" id="Combined-Shape" fill="#FFFFFF"></path>
            <path d="M94.437568,131.550849 L94.437568,134.370666 L97.5784096,134.370666 C98.1394836,134.370666 98.5949878,134.265104 98.944936,134.053979 C99.2948842,133.842853 99.4698556,133.468327 99.4698556,132.93039 C99.4698556,132.334611 99.2384884,131.941286 98.775747,131.750405 C98.3766325,131.617367 97.8676246,131.550849 97.248708,131.550849 L94.437568,131.550849 Z" id="Combined-Shape" fill="#FFFFFF"></path>
            <path d="M94.437568,136.487697 L94.437568,139.897506 L97.5784096,139.897506 C98.1394836,139.897506 98.5761892,139.822311 98.8885397,139.67192 C99.4553979,139.394275 99.7388227,138.862131 99.7388227,138.07547 C99.7388227,137.41028 99.4640741,136.953329 98.9145687,136.704606 C98.6080025,136.565783 98.1770811,136.493481 97.6217914,136.487697 L94.437568,136.487697 Z" id="BGM" fill="#FFFFFF"></path>
            <rect id="Rectangle-2" fill="#FFFFFF" x="167" y="337" width="8" height="182"></rect>
            <rect id="Rectangle-2" fill="#FFFFFF" x="156" y="500" width="28" height="38"></rect>
        </g>
    </g>
</svg>