<?xml version="1.0" encoding="UTF-8" standalone="no"?>
<svg width="317px" height="346px" viewBox="0 0 317 346" version="1.1" xmlns="http://www.w3.org/2000/svg" xmlns:xlink="http://www.w3.org/1999/xlink">
    <!-- Generator: Sketch 48.2 (47327) - http://www.bohemiancoding.com/sketch -->
    <title>Group</title>
    <desc>Created with Sketch.</desc>
    <defs></defs>
    <g id="3.2.-WHIM-YouTube---project-background" stroke="none" stroke-width="1" fill="none" fill-rule="evenodd" transform="translate(-765.000000, -291.000000)">
        <g id="Group" transform="translate(765.000000, 291.000000)">
            <ellipse id="Oval" fill="#1B1E23" cx="158.5" cy="324.5" rx="158.5" ry="21.5"></ellipse>
            <g id="youtube" fill-rule="nonzero">
                <path d="M49.5311124,0 L267.468888,0 C294.711031,0 317,22.2889692 317,49.5311124 L317,267.468888 C317,294.711031 294.711031,317 267.468888,317 L49.5311124,317 C22.2889692,317 0,294.711031 0,267.468888 L0,49.5311124 C0,22.2889692 22.2889692,0 49.5311124,0 Z" id="Shape" fill="#4D5560"></path>
                <path d="M49.3640657,19.5994624 L267.635934,19.5994624 C284.006403,19.5994624 297.400538,32.9763859 297.400538,49.3258194 L297.400538,202.91074 C297.400538,219.260173 284.006403,232.637097 267.635934,232.637097 L49.3640657,232.637097 C32.9935969,232.637097 19.5994624,219.260173 19.5994624,202.91074 L19.5994624,49.3251905 C19.6000921,32.975757 32.9935969,19.5994624 49.3640657,19.5994624 Z" id="Shape" fill="#373E49"></path>
                <path d="M54.7763877,34.938172 L263.075763,34.938172 C273.98653,34.938172 282.913978,43.85089 282.913978,54.7450502 L282.913978,198.343659 C282.913978,209.237191 273.987159,218.150538 263.075763,218.150538 L54.7763877,218.150538 C43.8656209,218.150538 34.938172,209.23782 34.938172,198.343659 L34.938172,54.7450502 C34.938172,43.8515187 43.8656209,34.938172 54.7763877,34.938172 Z" id="Shape" fill="#E2574C"></path>
                <path d="M282.061828,198.34422 L282.061828,54.7451181 C282.061828,43.8515492 273.165662,34.938172 262.291735,34.938172 L158.5,34.938172 L158.5,218.150538 L262.291735,218.150538 C273.165035,218.151166 282.061828,209.237789 282.061828,198.34422 Z" id="Shape" fill="#E66B62"></path>
                <path d="M201.69287,121.078763 L140.659084,83.0696424 C135.945133,80.0886091 131.231183,82.5725932 131.231183,88.5352905 L131.231183,164.553531 C131.231183,170.515597 135.945133,173.000212 140.659084,170.019179 L201.69287,132.755002 C207.647201,129.028395 205.414012,123.314853 201.69287,121.078763 Z" id="Shape" fill="#FFFFFF"></path>
                <path d="M119.159085,255.645161 C116.425304,255.645161 114.188172,257.891408 114.188172,260.636329 L114.188172,285.592166 C114.188172,288.337086 116.425304,290.583333 119.159085,290.583333 C121.892867,290.583333 124.129998,288.337086 124.129998,285.592166 L124.129998,260.636329 C124.129998,257.890775 121.892867,255.645161 119.159085,255.645161 Z M139.042738,255.645161 C136.308957,255.645161 134.071825,257.891408 134.071825,260.636329 L134.071825,285.592166 C134.071825,288.337086 136.308957,290.583333 139.042738,290.583333 C141.776519,290.583333 144.013651,288.337086 144.013651,285.592166 L144.013651,260.636329 C144.013651,257.890775 141.776519,255.645161 139.042738,255.645161 Z M158.926391,255.645161 C156.192609,255.645161 153.955478,257.891408 153.955478,260.636329 L153.955478,285.592166 C153.955478,288.337086 156.192609,290.583333 158.926391,290.583333 C161.660172,290.583333 163.897304,288.337086 163.897304,285.592166 L163.897304,260.636329 C163.896673,257.890775 161.660172,255.645161 158.926391,255.645161 Z M178.809413,255.645161 C176.075631,255.645161 173.838499,257.891408 173.838499,260.636329 L173.838499,285.592166 C173.838499,288.337086 176.075631,290.583333 178.809413,290.583333 C181.543194,290.583333 183.780326,288.337086 183.780326,285.592166 L183.780326,260.636329 C183.780326,257.890775 181.543825,255.645161 178.809413,255.645161 Z M198.693065,255.645161 C195.959284,255.645161 193.722152,257.891408 193.722152,260.636329 L193.722152,285.592166 C193.722152,288.337086 195.959284,290.583333 198.693065,290.583333 C201.426847,290.583333 203.663978,288.337086 203.663978,285.592166 L203.663978,260.636329 C203.663978,257.890775 201.426847,255.645161 198.693065,255.645161 Z" id="Shape" fill="#373E49"></path>
                <path d="M245.135462,255.645161 C235.48182,255.645161 227.808558,263.381389 227.808558,273.114247 C227.808558,282.847105 235.48182,290.583333 245.135462,290.583333 C254.789103,290.583333 262.462366,282.847105 262.462366,273.114247 C262.462366,263.381389 254.789103,255.645161 245.135462,255.645161 Z M71.8645382,255.645161 C62.2108967,255.645161 54.5376344,263.381389 54.5376344,273.114247 C54.5376344,282.847105 62.2108967,290.583333 71.8645382,290.583333 C81.5181797,290.583333 89.191442,282.847105 89.191442,273.114247 C89.191442,263.381389 81.5181797,255.645161 71.8645382,255.645161 Z" id="Shape" fill="#FFFFFF"></path>
                <path d="M72.197093,265.018817 C67.984795,265.018817 64.7634409,268.157674 64.7634409,272.262097 C64.7634409,276.36652 67.984795,279.505376 72.197093,279.505376 C76.409391,279.505376 79.6307451,276.36652 79.6307451,272.262097 C79.6313743,268.399219 76.4100201,265.018817 72.197093,265.018817 Z M245.655058,265.018817 C241.44276,265.018817 238.221405,268.157674 238.221405,272.262097 C238.221405,276.36652 241.44276,279.505376 245.655058,279.505376 C249.867356,279.505376 253.08871,276.36652 253.08871,272.262097 C253.08871,268.399219 249.867356,265.018817 245.655058,265.018817 Z" id="Shape" fill="#373E49"></path>
            </g>
        </g>
    </g>
</svg>